<?xml version="1.0" encoding="utf-8" standalone="no"?>
<!DOCTYPE svg PUBLIC "-//W3C//DTD SVG 1.1//EN"
  "http://www.w3.org/Graphics/SVG/1.1/DTD/svg11.dtd">
<svg xmlns:xlink="http://www.w3.org/1999/xlink" width="460.8pt" height="345.6pt" viewBox="0 0 460.8 345.6" xmlns="http://www.w3.org/2000/svg" version="1.1">
 <metadata>
  <rdf:RDF xmlns:dc="http://purl.org/dc/elements/1.1/" xmlns:cc="http://creativecommons.org/ns#" xmlns:rdf="http://www.w3.org/1999/02/22-rdf-syntax-ns#">
   <cc:Work>
    <dc:type rdf:resource="http://purl.org/dc/dcmitype/StillImage"/>
    <dc:date>2025-04-23T12:20:23.431262</dc:date>
    <dc:format>image/svg+xml</dc:format>
    <dc:creator>
     <cc:Agent>
      <dc:title>Matplotlib v3.10.1, https://matplotlib.org/</dc:title>
     </cc:Agent>
    </dc:creator>
   </cc:Work>
  </rdf:RDF>
 </metadata>
 <defs>
  <style type="text/css">*{stroke-linejoin: round; stroke-linecap: butt}</style>
 </defs>
 <g id="figure_1">
  <g id="patch_1">
   <path d="M 0 345.6 
L 460.8 345.6 
L 460.8 0 
L 0 0 
z
" style="fill: #ffffff"/>
  </g>
  <g id="axes_1">
   <g id="patch_2">
    <path d="M 60.14 302.92 
L 448.917857 302.92 
L 448.917857 10.8 
L 60.14 10.8 
z
" style="fill: #ffffff"/>
   </g>
   <g id="PathCollection_1">
    <defs>
     <path id="m335a564464" d="M 0 2.236068 
C 0.593012 2.236068 1.161816 2.000462 1.581139 1.581139 
C 2.000462 1.161816 2.236068 0.593012 2.236068 0 
C 2.236068 -0.593012 2.000462 -1.161816 1.581139 -1.581139 
C 1.161816 -2.000462 0.593012 -2.236068 0 -2.236068 
C -0.593012 -2.236068 -1.161816 -2.000462 -1.581139 -1.581139 
C -2.000462 -1.161816 -2.236068 -0.593012 -2.236068 0 
C -2.236068 0.593012 -2.000462 1.161816 -1.581139 1.581139 
C -1.161816 2.000462 -0.593012 2.236068 0 2.236068 
z
" style="stroke: #8b0000"/>
    </defs>
    <g clip-path="url(#pe1434b2ee7)">
     <use xlink:href="#m335a564464" x="391.610824" y="156.674182" style="fill: #8b0000; stroke: #8b0000"/>
     <use xlink:href="#m335a564464" x="374.847687" y="156.691727" style="fill: #8b0000; stroke: #8b0000"/>
     <use xlink:href="#m335a564464" x="378.029038" y="156.681267" style="fill: #8b0000; stroke: #8b0000"/>
     <use xlink:href="#m335a564464" x="399.504881" y="156.637739" style="fill: #8b0000; stroke: #8b0000"/>
     <use xlink:href="#m335a564464" x="374.249603" y="156.700001" style="fill: #8b0000; stroke: #8b0000"/>
     <use xlink:href="#m335a564464" x="403.915898" y="156.626833" style="fill: #8b0000; stroke: #8b0000"/>
     <use xlink:href="#m335a564464" x="356.194183" y="156.735048" style="fill: #8b0000; stroke: #8b0000"/>
     <use xlink:href="#m335a564464" x="398.939892" y="156.646639" style="fill: #8b0000; stroke: #8b0000"/>
     <use xlink:href="#m335a564464" x="429.177783" y="156.615278" style="fill: #8b0000; stroke: #8b0000"/>
     <use xlink:href="#m335a564464" x="397.866382" y="156.636375" style="fill: #8b0000; stroke: #8b0000"/>
     <use xlink:href="#m335a564464" x="378.99246" y="156.683908" style="fill: #8b0000; stroke: #8b0000"/>
     <use xlink:href="#m335a564464" x="377.757882" y="156.69422" style="fill: #8b0000; stroke: #8b0000"/>
     <use xlink:href="#m335a564464" x="372.007635" y="156.685305" style="fill: #8b0000; stroke: #8b0000"/>
     <use xlink:href="#m335a564464" x="352.467294" y="156.736096" style="fill: #8b0000; stroke: #8b0000"/>
     <use xlink:href="#m335a564464" x="343.145354" y="156.731187" style="fill: #8b0000; stroke: #8b0000"/>
     <use xlink:href="#m335a564464" x="367.251767" y="156.702937" style="fill: #8b0000; stroke: #8b0000"/>
     <use xlink:href="#m335a564464" x="375.82875" y="156.690851" style="fill: #8b0000; stroke: #8b0000"/>
     <use xlink:href="#m335a564464" x="390.520708" y="156.661712" style="fill: #8b0000; stroke: #8b0000"/>
     <use xlink:href="#m335a564464" x="377.870179" y="156.678951" style="fill: #8b0000; stroke: #8b0000"/>
     <use xlink:href="#m335a564464" x="399.216654" y="156.64031" style="fill: #8b0000; stroke: #8b0000"/>
     <use xlink:href="#m335a564464" x="424.578472" y="156.602096" style="fill: #8b0000; stroke: #8b0000"/>
     <use xlink:href="#m335a564464" x="394.272327" y="156.654074" style="fill: #8b0000; stroke: #8b0000"/>
     <use xlink:href="#m335a564464" x="384.036863" y="156.668952" style="fill: #8b0000; stroke: #8b0000"/>
     <use xlink:href="#m335a564464" x="405.764969" y="156.643296" style="fill: #8b0000; stroke: #8b0000"/>
     <use xlink:href="#m335a564464" x="369.868982" y="156.707459" style="fill: #8b0000; stroke: #8b0000"/>
     <use xlink:href="#m335a564464" x="383.610535" y="156.695872" style="fill: #8b0000; stroke: #8b0000"/>
     <use xlink:href="#m335a564464" x="387.741209" y="156.650742" style="fill: #8b0000; stroke: #8b0000"/>
     <use xlink:href="#m335a564464" x="379.705032" y="156.675756" style="fill: #8b0000; stroke: #8b0000"/>
     <use xlink:href="#m335a564464" x="373.058027" y="156.675991" style="fill: #8b0000; stroke: #8b0000"/>
     <use xlink:href="#m335a564464" x="403.437294" y="156.62868" style="fill: #8b0000; stroke: #8b0000"/>
     <use xlink:href="#m335a564464" x="382.893514" y="156.672245" style="fill: #8b0000; stroke: #8b0000"/>
     <use xlink:href="#m335a564464" x="369.326883" y="156.716256" style="fill: #8b0000; stroke: #8b0000"/>
     <use xlink:href="#m335a564464" x="374.667177" y="156.696924" style="fill: #8b0000; stroke: #8b0000"/>
     <use xlink:href="#m335a564464" x="408.693545" y="156.629804" style="fill: #8b0000; stroke: #8b0000"/>
     <use xlink:href="#m335a564464" x="399.376292" y="156.643176" style="fill: #8b0000; stroke: #8b0000"/>
     <use xlink:href="#m335a564464" x="380.64625" y="156.675573" style="fill: #8b0000; stroke: #8b0000"/>
     <use xlink:href="#m335a564464" x="400.343338" y="156.631752" style="fill: #8b0000; stroke: #8b0000"/>
     <use xlink:href="#m335a564464" x="417.607269" y="156.609509" style="fill: #8b0000; stroke: #8b0000"/>
     <use xlink:href="#m335a564464" x="385.791199" y="156.652217" style="fill: #8b0000; stroke: #8b0000"/>
     <use xlink:href="#m335a564464" x="395.657124" y="156.646028" style="fill: #8b0000; stroke: #8b0000"/>
     <use xlink:href="#m335a564464" x="340.61895" y="156.744598" style="fill: #8b0000; stroke: #8b0000"/>
     <use xlink:href="#m335a564464" x="403.650105" y="156.653096" style="fill: #8b0000; stroke: #8b0000"/>
     <use xlink:href="#m335a564464" x="390.896072" y="156.672642" style="fill: #8b0000; stroke: #8b0000"/>
     <use xlink:href="#m335a564464" x="352.661459" y="156.704346" style="fill: #8b0000; stroke: #8b0000"/>
     <use xlink:href="#m335a564464" x="374.270624" y="156.688606" style="fill: #8b0000; stroke: #8b0000"/>
     <use xlink:href="#m335a564464" x="393.817011" y="156.647476" style="fill: #8b0000; stroke: #8b0000"/>
     <use xlink:href="#m335a564464" x="379.430575" y="156.70363" style="fill: #8b0000; stroke: #8b0000"/>
     <use xlink:href="#m335a564464" x="397.026188" y="156.649565" style="fill: #8b0000; stroke: #8b0000"/>
     <use xlink:href="#m335a564464" x="376.96333" y="156.671689" style="fill: #8b0000; stroke: #8b0000"/>
     <use xlink:href="#m335a564464" x="375.089319" y="156.693311" style="fill: #8b0000; stroke: #8b0000"/>
     <use xlink:href="#m335a564464" x="377.933493" y="156.695003" style="fill: #8b0000; stroke: #8b0000"/>
     <use xlink:href="#m335a564464" x="394.994695" y="156.648311" style="fill: #8b0000; stroke: #8b0000"/>
     <use xlink:href="#m335a564464" x="396.683722" y="156.656975" style="fill: #8b0000; stroke: #8b0000"/>
     <use xlink:href="#m335a564464" x="390.87489" y="156.648575" style="fill: #8b0000; stroke: #8b0000"/>
     <use xlink:href="#m335a564464" x="387.223075" y="156.647598" style="fill: #8b0000; stroke: #8b0000"/>
     <use xlink:href="#m335a564464" x="395.038837" y="156.666302" style="fill: #8b0000; stroke: #8b0000"/>
     <use xlink:href="#m335a564464" x="409.153562" y="156.64105" style="fill: #8b0000; stroke: #8b0000"/>
     <use xlink:href="#m335a564464" x="346.72623" y="156.7142" style="fill: #8b0000; stroke: #8b0000"/>
     <use xlink:href="#m335a564464" x="390.055574" y="156.653613" style="fill: #8b0000; stroke: #8b0000"/>
     <use xlink:href="#m335a564464" x="349.823472" y="156.723079" style="fill: #8b0000; stroke: #8b0000"/>
     <use xlink:href="#m335a564464" x="379.937295" y="156.681597" style="fill: #8b0000; stroke: #8b0000"/>
     <use xlink:href="#m335a564464" x="395.552443" y="156.671357" style="fill: #8b0000; stroke: #8b0000"/>
     <use xlink:href="#m335a564464" x="393.667714" y="156.657867" style="fill: #8b0000; stroke: #8b0000"/>
     <use xlink:href="#m335a564464" x="391.928091" y="156.667513" style="fill: #8b0000; stroke: #8b0000"/>
     <use xlink:href="#m335a564464" x="368.82627" y="156.694292" style="fill: #8b0000; stroke: #8b0000"/>
     <use xlink:href="#m335a564464" x="413.743711" y="156.636064" style="fill: #8b0000; stroke: #8b0000"/>
     <use xlink:href="#m335a564464" x="403.143841" y="156.651375" style="fill: #8b0000; stroke: #8b0000"/>
     <use xlink:href="#m335a564464" x="392.264062" y="156.659655" style="fill: #8b0000; stroke: #8b0000"/>
     <use xlink:href="#m335a564464" x="369.189633" y="156.688614" style="fill: #8b0000; stroke: #8b0000"/>
     <use xlink:href="#m335a564464" x="404.664981" y="156.664375" style="fill: #8b0000; stroke: #8b0000"/>
     <use xlink:href="#m335a564464" x="400.937308" y="156.659811" style="fill: #8b0000; stroke: #8b0000"/>
     <use xlink:href="#m335a564464" x="355.730651" y="156.709722" style="fill: #8b0000; stroke: #8b0000"/>
     <use xlink:href="#m335a564464" x="382.249459" y="156.670331" style="fill: #8b0000; stroke: #8b0000"/>
     <use xlink:href="#m335a564464" x="381.970812" y="156.685741" style="fill: #8b0000; stroke: #8b0000"/>
     <use xlink:href="#m335a564464" x="391.75739" y="156.654326" style="fill: #8b0000; stroke: #8b0000"/>
     <use xlink:href="#m335a564464" x="398.730892" y="156.635664" style="fill: #8b0000; stroke: #8b0000"/>
     <use xlink:href="#m335a564464" x="399.296246" y="156.63821" style="fill: #8b0000; stroke: #8b0000"/>
     <use xlink:href="#m335a564464" x="378.316866" y="156.670022" style="fill: #8b0000; stroke: #8b0000"/>
     <use xlink:href="#m335a564464" x="387.038146" y="156.65638" style="fill: #8b0000; stroke: #8b0000"/>
     <use xlink:href="#m335a564464" x="358.624319" y="156.729666" style="fill: #8b0000; stroke: #8b0000"/>
     <use xlink:href="#m335a564464" x="331.290209" y="156.76137" style="fill: #8b0000; stroke: #8b0000"/>
     <use xlink:href="#m335a564464" x="402.714584" y="156.657494" style="fill: #8b0000; stroke: #8b0000"/>
     <use xlink:href="#m335a564464" x="379.114215" y="156.675195" style="fill: #8b0000; stroke: #8b0000"/>
     <use xlink:href="#m335a564464" x="401.258964" y="156.641132" style="fill: #8b0000; stroke: #8b0000"/>
     <use xlink:href="#m335a564464" x="416.473717" y="156.633599" style="fill: #8b0000; stroke: #8b0000"/>
     <use xlink:href="#m335a564464" x="359.126236" y="156.716168" style="fill: #8b0000; stroke: #8b0000"/>
     <use xlink:href="#m335a564464" x="398.558906" y="156.642673" style="fill: #8b0000; stroke: #8b0000"/>
     <use xlink:href="#m335a564464" x="381.954315" y="156.678963" style="fill: #8b0000; stroke: #8b0000"/>
     <use xlink:href="#m335a564464" x="406.353032" y="156.651846" style="fill: #8b0000; stroke: #8b0000"/>
     <use xlink:href="#m335a564464" x="365.381816" y="156.692933" style="fill: #8b0000; stroke: #8b0000"/>
     <use xlink:href="#m335a564464" x="431.980551" y="156.601297" style="fill: #8b0000; stroke: #8b0000"/>
     <use xlink:href="#m335a564464" x="372.053056" y="156.688959" style="fill: #8b0000; stroke: #8b0000"/>
     <use xlink:href="#m335a564464" x="383.054213" y="156.681884" style="fill: #8b0000; stroke: #8b0000"/>
     <use xlink:href="#m335a564464" x="387.852439" y="156.659736" style="fill: #8b0000; stroke: #8b0000"/>
     <use xlink:href="#m335a564464" x="408.240229" y="156.638541" style="fill: #8b0000; stroke: #8b0000"/>
     <use xlink:href="#m335a564464" x="396.123258" y="156.662286" style="fill: #8b0000; stroke: #8b0000"/>
     <use xlink:href="#m335a564464" x="378.775156" y="156.689069" style="fill: #8b0000; stroke: #8b0000"/>
     <use xlink:href="#m335a564464" x="389.043744" y="156.680862" style="fill: #8b0000; stroke: #8b0000"/>
     <use xlink:href="#m335a564464" x="384.561671" y="156.690173" style="fill: #8b0000; stroke: #8b0000"/>
     <use xlink:href="#m335a564464" x="354.136282" y="156.693382" style="fill: #8b0000; stroke: #8b0000"/>
     <use xlink:href="#m335a564464" x="381.724675" y="156.673296" style="fill: #8b0000; stroke: #8b0000"/>
     <use xlink:href="#m335a564464" x="384.626186" y="156.671204" style="fill: #8b0000; stroke: #8b0000"/>
     <use xlink:href="#m335a564464" x="366.575515" y="156.6813" style="fill: #8b0000; stroke: #8b0000"/>
     <use xlink:href="#m335a564464" x="372.664299" y="156.702811" style="fill: #8b0000; stroke: #8b0000"/>
     <use xlink:href="#m335a564464" x="373.383445" y="156.699115" style="fill: #8b0000; stroke: #8b0000"/>
     <use xlink:href="#m335a564464" x="373.74302" y="156.682218" style="fill: #8b0000; stroke: #8b0000"/>
     <use xlink:href="#m335a564464" x="405.234933" y="156.645345" style="fill: #8b0000; stroke: #8b0000"/>
     <use xlink:href="#m335a564464" x="376.385789" y="156.681736" style="fill: #8b0000; stroke: #8b0000"/>
     <use xlink:href="#m335a564464" x="386.908709" y="156.646892" style="fill: #8b0000; stroke: #8b0000"/>
     <use xlink:href="#m335a564464" x="415.591342" y="156.637338" style="fill: #8b0000; stroke: #8b0000"/>
     <use xlink:href="#m335a564464" x="392.348894" y="156.655724" style="fill: #8b0000; stroke: #8b0000"/>
     <use xlink:href="#m335a564464" x="407.525271" y="156.649021" style="fill: #8b0000; stroke: #8b0000"/>
     <use xlink:href="#m335a564464" x="407.211674" y="156.664199" style="fill: #8b0000; stroke: #8b0000"/>
     <use xlink:href="#m335a564464" x="397.708455" y="156.628329" style="fill: #8b0000; stroke: #8b0000"/>
     <use xlink:href="#m335a564464" x="406.621364" y="156.645314" style="fill: #8b0000; stroke: #8b0000"/>
     <use xlink:href="#m335a564464" x="350.140727" y="156.744601" style="fill: #8b0000; stroke: #8b0000"/>
     <use xlink:href="#m335a564464" x="419.333993" y="156.634197" style="fill: #8b0000; stroke: #8b0000"/>
     <use xlink:href="#m335a564464" x="414.671188" y="156.60477" style="fill: #8b0000; stroke: #8b0000"/>
     <use xlink:href="#m335a564464" x="363.191342" y="156.687909" style="fill: #8b0000; stroke: #8b0000"/>
     <use xlink:href="#m335a564464" x="385.140401" y="156.679256" style="fill: #8b0000; stroke: #8b0000"/>
     <use xlink:href="#m335a564464" x="377.955997" y="156.671134" style="fill: #8b0000; stroke: #8b0000"/>
     <use xlink:href="#m335a564464" x="404.004391" y="156.649916" style="fill: #8b0000; stroke: #8b0000"/>
     <use xlink:href="#m335a564464" x="397.306762" y="156.661715" style="fill: #8b0000; stroke: #8b0000"/>
     <use xlink:href="#m335a564464" x="396.875426" y="156.651672" style="fill: #8b0000; stroke: #8b0000"/>
     <use xlink:href="#m335a564464" x="359.95923" y="156.718276" style="fill: #8b0000; stroke: #8b0000"/>
     <use xlink:href="#m335a564464" x="412.771309" y="156.62651" style="fill: #8b0000; stroke: #8b0000"/>
     <use xlink:href="#m335a564464" x="404.146679" y="156.646332" style="fill: #8b0000; stroke: #8b0000"/>
     <use xlink:href="#m335a564464" x="401.297274" y="156.647769" style="fill: #8b0000; stroke: #8b0000"/>
     <use xlink:href="#m335a564464" x="379.220223" y="156.697655" style="fill: #8b0000; stroke: #8b0000"/>
     <use xlink:href="#m335a564464" x="386.495135" y="156.671742" style="fill: #8b0000; stroke: #8b0000"/>
     <use xlink:href="#m335a564464" x="392.443073" y="156.648062" style="fill: #8b0000; stroke: #8b0000"/>
     <use xlink:href="#m335a564464" x="367.639073" y="156.70869" style="fill: #8b0000; stroke: #8b0000"/>
     <use xlink:href="#m335a564464" x="392.266777" y="156.658784" style="fill: #8b0000; stroke: #8b0000"/>
     <use xlink:href="#m335a564464" x="399.606846" y="156.641083" style="fill: #8b0000; stroke: #8b0000"/>
     <use xlink:href="#m335a564464" x="369.960515" y="156.694584" style="fill: #8b0000; stroke: #8b0000"/>
     <use xlink:href="#m335a564464" x="395.120371" y="156.659143" style="fill: #8b0000; stroke: #8b0000"/>
     <use xlink:href="#m335a564464" x="357.460676" y="156.706135" style="fill: #8b0000; stroke: #8b0000"/>
     <use xlink:href="#m335a564464" x="383.207501" y="156.68064" style="fill: #8b0000; stroke: #8b0000"/>
     <use xlink:href="#m335a564464" x="386.479466" y="156.659699" style="fill: #8b0000; stroke: #8b0000"/>
     <use xlink:href="#m335a564464" x="368.431194" y="156.654908" style="fill: #8b0000; stroke: #8b0000"/>
     <use xlink:href="#m335a564464" x="380.726076" y="156.670886" style="fill: #8b0000; stroke: #8b0000"/>
     <use xlink:href="#m335a564464" x="393.704402" y="156.660994" style="fill: #8b0000; stroke: #8b0000"/>
     <use xlink:href="#m335a564464" x="394.98032" y="156.66345" style="fill: #8b0000; stroke: #8b0000"/>
     <use xlink:href="#m335a564464" x="385.976579" y="156.672861" style="fill: #8b0000; stroke: #8b0000"/>
     <use xlink:href="#m335a564464" x="379.534395" y="156.673177" style="fill: #8b0000; stroke: #8b0000"/>
     <use xlink:href="#m335a564464" x="379.027093" y="156.686352" style="fill: #8b0000; stroke: #8b0000"/>
     <use xlink:href="#m335a564464" x="383.11859" y="156.691692" style="fill: #8b0000; stroke: #8b0000"/>
     <use xlink:href="#m335a564464" x="382.377048" y="156.668378" style="fill: #8b0000; stroke: #8b0000"/>
     <use xlink:href="#m335a564464" x="382.181217" y="156.682988" style="fill: #8b0000; stroke: #8b0000"/>
     <use xlink:href="#m335a564464" x="404.246608" y="156.653933" style="fill: #8b0000; stroke: #8b0000"/>
     <use xlink:href="#m335a564464" x="378.381517" y="156.678737" style="fill: #8b0000; stroke: #8b0000"/>
     <use xlink:href="#m335a564464" x="380.615877" y="156.666262" style="fill: #8b0000; stroke: #8b0000"/>
     <use xlink:href="#m335a564464" x="354.323387" y="156.725833" style="fill: #8b0000; stroke: #8b0000"/>
     <use xlink:href="#m335a564464" x="416.43341" y="156.627618" style="fill: #8b0000; stroke: #8b0000"/>
     <use xlink:href="#m335a564464" x="396.949635" y="156.652786" style="fill: #8b0000; stroke: #8b0000"/>
     <use xlink:href="#m335a564464" x="366.930517" y="156.689325" style="fill: #8b0000; stroke: #8b0000"/>
     <use xlink:href="#m335a564464" x="396.010051" y="156.664772" style="fill: #8b0000; stroke: #8b0000"/>
     <use xlink:href="#m335a564464" x="419.036667" y="156.618414" style="fill: #8b0000; stroke: #8b0000"/>
     <use xlink:href="#m335a564464" x="392.40996" y="156.645625" style="fill: #8b0000; stroke: #8b0000"/>
     <use xlink:href="#m335a564464" x="385.982132" y="156.674401" style="fill: #8b0000; stroke: #8b0000"/>
     <use xlink:href="#m335a564464" x="386.086749" y="156.657342" style="fill: #8b0000; stroke: #8b0000"/>
     <use xlink:href="#m335a564464" x="430.862343" y="156.598147" style="fill: #8b0000; stroke: #8b0000"/>
     <use xlink:href="#m335a564464" x="396.966716" y="156.633167" style="fill: #8b0000; stroke: #8b0000"/>
     <use xlink:href="#m335a564464" x="369.590485" y="156.700232" style="fill: #8b0000; stroke: #8b0000"/>
     <use xlink:href="#m335a564464" x="390.797291" y="156.664594" style="fill: #8b0000; stroke: #8b0000"/>
     <use xlink:href="#m335a564464" x="410.306055" y="156.622527" style="fill: #8b0000; stroke: #8b0000"/>
     <use xlink:href="#m335a564464" x="403.109557" y="156.635576" style="fill: #8b0000; stroke: #8b0000"/>
     <use xlink:href="#m335a564464" x="397.524295" y="156.644642" style="fill: #8b0000; stroke: #8b0000"/>
     <use xlink:href="#m335a564464" x="400.879642" y="156.64291" style="fill: #8b0000; stroke: #8b0000"/>
     <use xlink:href="#m335a564464" x="418.401619" y="156.621599" style="fill: #8b0000; stroke: #8b0000"/>
     <use xlink:href="#m335a564464" x="390.044549" y="156.676211" style="fill: #8b0000; stroke: #8b0000"/>
     <use xlink:href="#m335a564464" x="403.414158" y="156.639619" style="fill: #8b0000; stroke: #8b0000"/>
     <use xlink:href="#m335a564464" x="402.281988" y="156.661608" style="fill: #8b0000; stroke: #8b0000"/>
     <use xlink:href="#m335a564464" x="363.875312" y="156.71087" style="fill: #8b0000; stroke: #8b0000"/>
     <use xlink:href="#m335a564464" x="407.312433" y="156.623496" style="fill: #8b0000; stroke: #8b0000"/>
     <use xlink:href="#m335a564464" x="370.762617" y="156.692253" style="fill: #8b0000; stroke: #8b0000"/>
     <use xlink:href="#m335a564464" x="384.643853" y="156.661723" style="fill: #8b0000; stroke: #8b0000"/>
     <use xlink:href="#m335a564464" x="350.823758" y="156.731975" style="fill: #8b0000; stroke: #8b0000"/>
     <use xlink:href="#m335a564464" x="361.322677" y="156.719758" style="fill: #8b0000; stroke: #8b0000"/>
     <use xlink:href="#m335a564464" x="390.566404" y="156.67163" style="fill: #8b0000; stroke: #8b0000"/>
     <use xlink:href="#m335a564464" x="363.701073" y="156.703985" style="fill: #8b0000; stroke: #8b0000"/>
     <use xlink:href="#m335a564464" x="400.179366" y="156.636455" style="fill: #8b0000; stroke: #8b0000"/>
     <use xlink:href="#m335a564464" x="400.837892" y="156.628481" style="fill: #8b0000; stroke: #8b0000"/>
     <use xlink:href="#m335a564464" x="409.523003" y="156.64389" style="fill: #8b0000; stroke: #8b0000"/>
     <use xlink:href="#m335a564464" x="393.094455" y="156.673543" style="fill: #8b0000; stroke: #8b0000"/>
     <use xlink:href="#m335a564464" x="379.446672" y="156.681326" style="fill: #8b0000; stroke: #8b0000"/>
     <use xlink:href="#m335a564464" x="409.685463" y="156.629344" style="fill: #8b0000; stroke: #8b0000"/>
     <use xlink:href="#m335a564464" x="402.549084" y="156.644446" style="fill: #8b0000; stroke: #8b0000"/>
     <use xlink:href="#m335a564464" x="382.226123" y="156.690276" style="fill: #8b0000; stroke: #8b0000"/>
     <use xlink:href="#m335a564464" x="388.74178" y="156.669823" style="fill: #8b0000; stroke: #8b0000"/>
     <use xlink:href="#m335a564464" x="395.990683" y="156.6452" style="fill: #8b0000; stroke: #8b0000"/>
     <use xlink:href="#m335a564464" x="395.025234" y="156.655304" style="fill: #8b0000; stroke: #8b0000"/>
     <use xlink:href="#m335a564464" x="419.265415" y="156.605504" style="fill: #8b0000; stroke: #8b0000"/>
     <use xlink:href="#m335a564464" x="375.001604" y="156.694061" style="fill: #8b0000; stroke: #8b0000"/>
     <use xlink:href="#m335a564464" x="396.969574" y="156.66953" style="fill: #8b0000; stroke: #8b0000"/>
     <use xlink:href="#m335a564464" x="405.922115" y="156.650627" style="fill: #8b0000; stroke: #8b0000"/>
     <use xlink:href="#m335a564464" x="416.04914" y="156.63214" style="fill: #8b0000; stroke: #8b0000"/>
     <use xlink:href="#m335a564464" x="403.630292" y="156.642414" style="fill: #8b0000; stroke: #8b0000"/>
     <use xlink:href="#m335a564464" x="366.247066" y="156.712852" style="fill: #8b0000; stroke: #8b0000"/>
     <use xlink:href="#m335a564464" x="356.391733" y="156.71599" style="fill: #8b0000; stroke: #8b0000"/>
    </g>
   </g>
   <g id="matplotlib.axis_1">
    <g id="xtick_1">
     <g id="line2d_1">
      <defs>
       <path id="m85bd0e8f1b" d="M 0 0 
L 0 3.5 
" style="stroke: #000000; stroke-width: 0.8"/>
      </defs>
      <g>
       <use xlink:href="#m85bd0e8f1b" x="69.396616" y="302.92" style="stroke: #000000; stroke-width: 0.8"/>
      </g>
     </g>
     <g id="text_1">
      <!-- −100 -->
      <g transform="translate(55.663022 317.518437) scale(0.1 -0.1)">
       <defs>
        <path id="DejaVuSans-2212" d="M 678 2272 
L 4684 2272 
L 4684 1741 
L 678 1741 
L 678 2272 
z
" transform="scale(0.015625)"/>
        <path id="DejaVuSans-31" d="M 794 531 
L 1825 531 
L 1825 4091 
L 703 3866 
L 703 4441 
L 1819 4666 
L 2450 4666 
L 2450 531 
L 3481 531 
L 3481 0 
L 794 0 
L 794 531 
z
" transform="scale(0.015625)"/>
        <path id="DejaVuSans-30" d="M 2034 4250 
Q 1547 4250 1301 3770 
Q 1056 3291 1056 2328 
Q 1056 1369 1301 889 
Q 1547 409 2034 409 
Q 2525 409 2770 889 
Q 3016 1369 3016 2328 
Q 3016 3291 2770 3770 
Q 2525 4250 2034 4250 
z
M 2034 4750 
Q 2819 4750 3233 4129 
Q 3647 3509 3647 2328 
Q 3647 1150 3233 529 
Q 2819 -91 2034 -91 
Q 1250 -91 836 529 
Q 422 1150 422 2328 
Q 422 3509 836 4129 
Q 1250 4750 2034 4750 
z
" transform="scale(0.015625)"/>
       </defs>
       <use xlink:href="#DejaVuSans-2212"/>
       <use xlink:href="#DejaVuSans-31" transform="translate(83.789062 0)"/>
       <use xlink:href="#DejaVuSans-30" transform="translate(147.412109 0)"/>
       <use xlink:href="#DejaVuSans-30" transform="translate(211.035156 0)"/>
      </g>
     </g>
    </g>
    <g id="xtick_2">
     <g id="line2d_2">
      <g>
       <use xlink:href="#m85bd0e8f1b" x="115.679694" y="302.92" style="stroke: #000000; stroke-width: 0.8"/>
      </g>
     </g>
     <g id="text_2">
      <!-- −75 -->
      <g transform="translate(105.12735 317.518437) scale(0.1 -0.1)">
       <defs>
        <path id="DejaVuSans-37" d="M 525 4666 
L 3525 4666 
L 3525 4397 
L 1831 0 
L 1172 0 
L 2766 4134 
L 525 4134 
L 525 4666 
z
" transform="scale(0.015625)"/>
        <path id="DejaVuSans-35" d="M 691 4666 
L 3169 4666 
L 3169 4134 
L 1269 4134 
L 1269 2991 
Q 1406 3038 1543 3061 
Q 1681 3084 1819 3084 
Q 2600 3084 3056 2656 
Q 3513 2228 3513 1497 
Q 3513 744 3044 326 
Q 2575 -91 1722 -91 
Q 1428 -91 1123 -41 
Q 819 9 494 109 
L 494 744 
Q 775 591 1075 516 
Q 1375 441 1709 441 
Q 2250 441 2565 725 
Q 2881 1009 2881 1497 
Q 2881 1984 2565 2268 
Q 2250 2553 1709 2553 
Q 1456 2553 1204 2497 
Q 953 2441 691 2322 
L 691 4666 
z
" transform="scale(0.015625)"/>
       </defs>
       <use xlink:href="#DejaVuSans-2212"/>
       <use xlink:href="#DejaVuSans-37" transform="translate(83.789062 0)"/>
       <use xlink:href="#DejaVuSans-35" transform="translate(147.412109 0)"/>
      </g>
     </g>
    </g>
    <g id="xtick_3">
     <g id="line2d_3">
      <g>
       <use xlink:href="#m85bd0e8f1b" x="161.962772" y="302.92" style="stroke: #000000; stroke-width: 0.8"/>
      </g>
     </g>
     <g id="text_3">
      <!-- −50 -->
      <g transform="translate(151.410428 317.518437) scale(0.1 -0.1)">
       <use xlink:href="#DejaVuSans-2212"/>
       <use xlink:href="#DejaVuSans-35" transform="translate(83.789062 0)"/>
       <use xlink:href="#DejaVuSans-30" transform="translate(147.412109 0)"/>
      </g>
     </g>
    </g>
    <g id="xtick_4">
     <g id="line2d_4">
      <g>
       <use xlink:href="#m85bd0e8f1b" x="208.24585" y="302.92" style="stroke: #000000; stroke-width: 0.8"/>
      </g>
     </g>
     <g id="text_4">
      <!-- −25 -->
      <g transform="translate(197.693507 317.518437) scale(0.1 -0.1)">
       <defs>
        <path id="DejaVuSans-32" d="M 1228 531 
L 3431 531 
L 3431 0 
L 469 0 
L 469 531 
Q 828 903 1448 1529 
Q 2069 2156 2228 2338 
Q 2531 2678 2651 2914 
Q 2772 3150 2772 3378 
Q 2772 3750 2511 3984 
Q 2250 4219 1831 4219 
Q 1534 4219 1204 4116 
Q 875 4013 500 3803 
L 500 4441 
Q 881 4594 1212 4672 
Q 1544 4750 1819 4750 
Q 2544 4750 2975 4387 
Q 3406 4025 3406 3419 
Q 3406 3131 3298 2873 
Q 3191 2616 2906 2266 
Q 2828 2175 2409 1742 
Q 1991 1309 1228 531 
z
" transform="scale(0.015625)"/>
       </defs>
       <use xlink:href="#DejaVuSans-2212"/>
       <use xlink:href="#DejaVuSans-32" transform="translate(83.789062 0)"/>
       <use xlink:href="#DejaVuSans-35" transform="translate(147.412109 0)"/>
      </g>
     </g>
    </g>
    <g id="xtick_5">
     <g id="line2d_5">
      <g>
       <use xlink:href="#m85bd0e8f1b" x="254.528929" y="302.92" style="stroke: #000000; stroke-width: 0.8"/>
      </g>
     </g>
     <g id="text_5">
      <!-- 0 -->
      <g transform="translate(251.347679 317.518437) scale(0.1 -0.1)">
       <use xlink:href="#DejaVuSans-30"/>
      </g>
     </g>
    </g>
    <g id="xtick_6">
     <g id="line2d_6">
      <g>
       <use xlink:href="#m85bd0e8f1b" x="300.812007" y="302.92" style="stroke: #000000; stroke-width: 0.8"/>
      </g>
     </g>
     <g id="text_6">
      <!-- 25 -->
      <g transform="translate(294.449507 317.518437) scale(0.1 -0.1)">
       <use xlink:href="#DejaVuSans-32"/>
       <use xlink:href="#DejaVuSans-35" transform="translate(63.623047 0)"/>
      </g>
     </g>
    </g>
    <g id="xtick_7">
     <g id="line2d_7">
      <g>
       <use xlink:href="#m85bd0e8f1b" x="347.095085" y="302.92" style="stroke: #000000; stroke-width: 0.8"/>
      </g>
     </g>
     <g id="text_7">
      <!-- 50 -->
      <g transform="translate(340.732585 317.518437) scale(0.1 -0.1)">
       <use xlink:href="#DejaVuSans-35"/>
       <use xlink:href="#DejaVuSans-30" transform="translate(63.623047 0)"/>
      </g>
     </g>
    </g>
    <g id="xtick_8">
     <g id="line2d_8">
      <g>
       <use xlink:href="#m85bd0e8f1b" x="393.378163" y="302.92" style="stroke: #000000; stroke-width: 0.8"/>
      </g>
     </g>
     <g id="text_8">
      <!-- 75 -->
      <g transform="translate(387.015663 317.518437) scale(0.1 -0.1)">
       <use xlink:href="#DejaVuSans-37"/>
       <use xlink:href="#DejaVuSans-35" transform="translate(63.623047 0)"/>
      </g>
     </g>
    </g>
    <g id="xtick_9">
     <g id="line2d_9">
      <g>
       <use xlink:href="#m85bd0e8f1b" x="439.661241" y="302.92" style="stroke: #000000; stroke-width: 0.8"/>
      </g>
     </g>
     <g id="text_9">
      <!-- 100 -->
      <g transform="translate(430.117491 317.518437) scale(0.1 -0.1)">
       <use xlink:href="#DejaVuSans-31"/>
       <use xlink:href="#DejaVuSans-30" transform="translate(63.623047 0)"/>
       <use xlink:href="#DejaVuSans-30" transform="translate(127.246094 0)"/>
      </g>
     </g>
    </g>
    <g id="text_10">
     <!-- Diameter [mm] -->
     <g transform="translate(212.098147 331.956406) scale(0.11 -0.11)">
      <defs>
       <path id="DejaVuSans-44" d="M 1259 4147 
L 1259 519 
L 2022 519 
Q 2988 519 3436 956 
Q 3884 1394 3884 2338 
Q 3884 3275 3436 3711 
Q 2988 4147 2022 4147 
L 1259 4147 
z
M 628 4666 
L 1925 4666 
Q 3281 4666 3915 4102 
Q 4550 3538 4550 2338 
Q 4550 1131 3912 565 
Q 3275 0 1925 0 
L 628 0 
L 628 4666 
z
" transform="scale(0.015625)"/>
       <path id="DejaVuSans-69" d="M 603 3500 
L 1178 3500 
L 1178 0 
L 603 0 
L 603 3500 
z
M 603 4863 
L 1178 4863 
L 1178 4134 
L 603 4134 
L 603 4863 
z
" transform="scale(0.015625)"/>
       <path id="DejaVuSans-61" d="M 2194 1759 
Q 1497 1759 1228 1600 
Q 959 1441 959 1056 
Q 959 750 1161 570 
Q 1363 391 1709 391 
Q 2188 391 2477 730 
Q 2766 1069 2766 1631 
L 2766 1759 
L 2194 1759 
z
M 3341 1997 
L 3341 0 
L 2766 0 
L 2766 531 
Q 2569 213 2275 61 
Q 1981 -91 1556 -91 
Q 1019 -91 701 211 
Q 384 513 384 1019 
Q 384 1609 779 1909 
Q 1175 2209 1959 2209 
L 2766 2209 
L 2766 2266 
Q 2766 2663 2505 2880 
Q 2244 3097 1772 3097 
Q 1472 3097 1187 3025 
Q 903 2953 641 2809 
L 641 3341 
Q 956 3463 1253 3523 
Q 1550 3584 1831 3584 
Q 2591 3584 2966 3190 
Q 3341 2797 3341 1997 
z
" transform="scale(0.015625)"/>
       <path id="DejaVuSans-6d" d="M 3328 2828 
Q 3544 3216 3844 3400 
Q 4144 3584 4550 3584 
Q 5097 3584 5394 3201 
Q 5691 2819 5691 2113 
L 5691 0 
L 5113 0 
L 5113 2094 
Q 5113 2597 4934 2840 
Q 4756 3084 4391 3084 
Q 3944 3084 3684 2787 
Q 3425 2491 3425 1978 
L 3425 0 
L 2847 0 
L 2847 2094 
Q 2847 2600 2669 2842 
Q 2491 3084 2119 3084 
Q 1678 3084 1418 2786 
Q 1159 2488 1159 1978 
L 1159 0 
L 581 0 
L 581 3500 
L 1159 3500 
L 1159 2956 
Q 1356 3278 1631 3431 
Q 1906 3584 2284 3584 
Q 2666 3584 2933 3390 
Q 3200 3197 3328 2828 
z
" transform="scale(0.015625)"/>
       <path id="DejaVuSans-65" d="M 3597 1894 
L 3597 1613 
L 953 1613 
Q 991 1019 1311 708 
Q 1631 397 2203 397 
Q 2534 397 2845 478 
Q 3156 559 3463 722 
L 3463 178 
Q 3153 47 2828 -22 
Q 2503 -91 2169 -91 
Q 1331 -91 842 396 
Q 353 884 353 1716 
Q 353 2575 817 3079 
Q 1281 3584 2069 3584 
Q 2775 3584 3186 3129 
Q 3597 2675 3597 1894 
z
M 3022 2063 
Q 3016 2534 2758 2815 
Q 2500 3097 2075 3097 
Q 1594 3097 1305 2825 
Q 1016 2553 972 2059 
L 3022 2063 
z
" transform="scale(0.015625)"/>
       <path id="DejaVuSans-74" d="M 1172 4494 
L 1172 3500 
L 2356 3500 
L 2356 3053 
L 1172 3053 
L 1172 1153 
Q 1172 725 1289 603 
Q 1406 481 1766 481 
L 2356 481 
L 2356 0 
L 1766 0 
Q 1100 0 847 248 
Q 594 497 594 1153 
L 594 3053 
L 172 3053 
L 172 3500 
L 594 3500 
L 594 4494 
L 1172 4494 
z
" transform="scale(0.015625)"/>
       <path id="DejaVuSans-72" d="M 2631 2963 
Q 2534 3019 2420 3045 
Q 2306 3072 2169 3072 
Q 1681 3072 1420 2755 
Q 1159 2438 1159 1844 
L 1159 0 
L 581 0 
L 581 3500 
L 1159 3500 
L 1159 2956 
Q 1341 3275 1631 3429 
Q 1922 3584 2338 3584 
Q 2397 3584 2469 3576 
Q 2541 3569 2628 3553 
L 2631 2963 
z
" transform="scale(0.015625)"/>
       <path id="DejaVuSans-20" transform="scale(0.015625)"/>
       <path id="DejaVuSans-5b" d="M 550 4863 
L 1875 4863 
L 1875 4416 
L 1125 4416 
L 1125 -397 
L 1875 -397 
L 1875 -844 
L 550 -844 
L 550 4863 
z
" transform="scale(0.015625)"/>
       <path id="DejaVuSans-5d" d="M 1947 4863 
L 1947 -844 
L 622 -844 
L 622 -397 
L 1369 -397 
L 1369 4416 
L 622 4416 
L 622 4863 
L 1947 4863 
z
" transform="scale(0.015625)"/>
      </defs>
      <use xlink:href="#DejaVuSans-44"/>
      <use xlink:href="#DejaVuSans-69" transform="translate(77.001953 0)"/>
      <use xlink:href="#DejaVuSans-61" transform="translate(104.785156 0)"/>
      <use xlink:href="#DejaVuSans-6d" transform="translate(166.064453 0)"/>
      <use xlink:href="#DejaVuSans-65" transform="translate(263.476562 0)"/>
      <use xlink:href="#DejaVuSans-74" transform="translate(325 0)"/>
      <use xlink:href="#DejaVuSans-65" transform="translate(364.208984 0)"/>
      <use xlink:href="#DejaVuSans-72" transform="translate(425.732422 0)"/>
      <use xlink:href="#DejaVuSans-20" transform="translate(466.845703 0)"/>
      <use xlink:href="#DejaVuSans-5b" transform="translate(498.632812 0)"/>
      <use xlink:href="#DejaVuSans-6d" transform="translate(537.646484 0)"/>
      <use xlink:href="#DejaVuSans-6d" transform="translate(635.058594 0)"/>
      <use xlink:href="#DejaVuSans-5d" transform="translate(732.470703 0)"/>
     </g>
    </g>
   </g>
   <g id="matplotlib.axis_2">
    <g id="ytick_1">
     <g id="line2d_10">
      <defs>
       <path id="m9f9c790512" d="M 0 0 
L -3.5 0 
" style="stroke: #000000; stroke-width: 0.8"/>
      </defs>
      <g>
       <use xlink:href="#m9f9c790512" x="60.14" y="295.964762" style="stroke: #000000; stroke-width: 0.8"/>
      </g>
     </g>
     <g id="text_11">
      <!-- −100 -->
      <g transform="translate(25.672813 299.763981) scale(0.1 -0.1)">
       <use xlink:href="#DejaVuSans-2212"/>
       <use xlink:href="#DejaVuSans-31" transform="translate(83.789062 0)"/>
       <use xlink:href="#DejaVuSans-30" transform="translate(147.412109 0)"/>
       <use xlink:href="#DejaVuSans-30" transform="translate(211.035156 0)"/>
      </g>
     </g>
    </g>
    <g id="ytick_2">
     <g id="line2d_11">
      <g>
       <use xlink:href="#m9f9c790512" x="60.14" y="261.188571" style="stroke: #000000; stroke-width: 0.8"/>
      </g>
     </g>
     <g id="text_12">
      <!-- −75 -->
      <g transform="translate(32.035313 264.98779) scale(0.1 -0.1)">
       <use xlink:href="#DejaVuSans-2212"/>
       <use xlink:href="#DejaVuSans-37" transform="translate(83.789062 0)"/>
       <use xlink:href="#DejaVuSans-35" transform="translate(147.412109 0)"/>
      </g>
     </g>
    </g>
    <g id="ytick_3">
     <g id="line2d_12">
      <g>
       <use xlink:href="#m9f9c790512" x="60.14" y="226.412381" style="stroke: #000000; stroke-width: 0.8"/>
      </g>
     </g>
     <g id="text_13">
      <!-- −50 -->
      <g transform="translate(32.035313 230.2116) scale(0.1 -0.1)">
       <use xlink:href="#DejaVuSans-2212"/>
       <use xlink:href="#DejaVuSans-35" transform="translate(83.789062 0)"/>
       <use xlink:href="#DejaVuSans-30" transform="translate(147.412109 0)"/>
      </g>
     </g>
    </g>
    <g id="ytick_4">
     <g id="line2d_13">
      <g>
       <use xlink:href="#m9f9c790512" x="60.14" y="191.63619" style="stroke: #000000; stroke-width: 0.8"/>
      </g>
     </g>
     <g id="text_14">
      <!-- −25 -->
      <g transform="translate(32.035313 195.435409) scale(0.1 -0.1)">
       <use xlink:href="#DejaVuSans-2212"/>
       <use xlink:href="#DejaVuSans-32" transform="translate(83.789062 0)"/>
       <use xlink:href="#DejaVuSans-35" transform="translate(147.412109 0)"/>
      </g>
     </g>
    </g>
    <g id="ytick_5">
     <g id="line2d_14">
      <g>
       <use xlink:href="#m9f9c790512" x="60.14" y="156.86" style="stroke: #000000; stroke-width: 0.8"/>
      </g>
     </g>
     <g id="text_15">
      <!-- 0 -->
      <g transform="translate(46.7775 160.659219) scale(0.1 -0.1)">
       <use xlink:href="#DejaVuSans-30"/>
      </g>
     </g>
    </g>
    <g id="ytick_6">
     <g id="line2d_15">
      <g>
       <use xlink:href="#m9f9c790512" x="60.14" y="122.08381" style="stroke: #000000; stroke-width: 0.8"/>
      </g>
     </g>
     <g id="text_16">
      <!-- 25 -->
      <g transform="translate(40.415 125.883028) scale(0.1 -0.1)">
       <use xlink:href="#DejaVuSans-32"/>
       <use xlink:href="#DejaVuSans-35" transform="translate(63.623047 0)"/>
      </g>
     </g>
    </g>
    <g id="ytick_7">
     <g id="line2d_16">
      <g>
       <use xlink:href="#m9f9c790512" x="60.14" y="87.307619" style="stroke: #000000; stroke-width: 0.8"/>
      </g>
     </g>
     <g id="text_17">
      <!-- 50 -->
      <g transform="translate(40.415 91.106838) scale(0.1 -0.1)">
       <use xlink:href="#DejaVuSans-35"/>
       <use xlink:href="#DejaVuSans-30" transform="translate(63.623047 0)"/>
      </g>
     </g>
    </g>
    <g id="ytick_8">
     <g id="line2d_17">
      <g>
       <use xlink:href="#m9f9c790512" x="60.14" y="52.531429" style="stroke: #000000; stroke-width: 0.8"/>
      </g>
     </g>
     <g id="text_18">
      <!-- 75 -->
      <g transform="translate(40.415 56.330647) scale(0.1 -0.1)">
       <use xlink:href="#DejaVuSans-37"/>
       <use xlink:href="#DejaVuSans-35" transform="translate(63.623047 0)"/>
      </g>
     </g>
    </g>
    <g id="ytick_9">
     <g id="line2d_18">
      <g>
       <use xlink:href="#m9f9c790512" x="60.14" y="17.755238" style="stroke: #000000; stroke-width: 0.8"/>
      </g>
     </g>
     <g id="text_19">
      <!-- 100 -->
      <g transform="translate(34.0525 21.554457) scale(0.1 -0.1)">
       <use xlink:href="#DejaVuSans-31"/>
       <use xlink:href="#DejaVuSans-30" transform="translate(63.623047 0)"/>
       <use xlink:href="#DejaVuSans-30" transform="translate(127.246094 0)"/>
      </g>
     </g>
    </g>
    <g id="text_20">
     <!-- Weight [kg] -->
     <g transform="translate(19.385156 188.736797) rotate(-90) scale(0.11 -0.11)">
      <defs>
       <path id="DejaVuSans-57" d="M 213 4666 
L 850 4666 
L 1831 722 
L 2809 4666 
L 3519 4666 
L 4500 722 
L 5478 4666 
L 6119 4666 
L 4947 0 
L 4153 0 
L 3169 4050 
L 2175 0 
L 1381 0 
L 213 4666 
z
" transform="scale(0.015625)"/>
       <path id="DejaVuSans-67" d="M 2906 1791 
Q 2906 2416 2648 2759 
Q 2391 3103 1925 3103 
Q 1463 3103 1205 2759 
Q 947 2416 947 1791 
Q 947 1169 1205 825 
Q 1463 481 1925 481 
Q 2391 481 2648 825 
Q 2906 1169 2906 1791 
z
M 3481 434 
Q 3481 -459 3084 -895 
Q 2688 -1331 1869 -1331 
Q 1566 -1331 1297 -1286 
Q 1028 -1241 775 -1147 
L 775 -588 
Q 1028 -725 1275 -790 
Q 1522 -856 1778 -856 
Q 2344 -856 2625 -561 
Q 2906 -266 2906 331 
L 2906 616 
Q 2728 306 2450 153 
Q 2172 0 1784 0 
Q 1141 0 747 490 
Q 353 981 353 1791 
Q 353 2603 747 3093 
Q 1141 3584 1784 3584 
Q 2172 3584 2450 3431 
Q 2728 3278 2906 2969 
L 2906 3500 
L 3481 3500 
L 3481 434 
z
" transform="scale(0.015625)"/>
       <path id="DejaVuSans-68" d="M 3513 2113 
L 3513 0 
L 2938 0 
L 2938 2094 
Q 2938 2591 2744 2837 
Q 2550 3084 2163 3084 
Q 1697 3084 1428 2787 
Q 1159 2491 1159 1978 
L 1159 0 
L 581 0 
L 581 4863 
L 1159 4863 
L 1159 2956 
Q 1366 3272 1645 3428 
Q 1925 3584 2291 3584 
Q 2894 3584 3203 3211 
Q 3513 2838 3513 2113 
z
" transform="scale(0.015625)"/>
       <path id="DejaVuSans-6b" d="M 581 4863 
L 1159 4863 
L 1159 1991 
L 2875 3500 
L 3609 3500 
L 1753 1863 
L 3688 0 
L 2938 0 
L 1159 1709 
L 1159 0 
L 581 0 
L 581 4863 
z
" transform="scale(0.015625)"/>
      </defs>
      <use xlink:href="#DejaVuSans-57"/>
      <use xlink:href="#DejaVuSans-65" transform="translate(93.001953 0)"/>
      <use xlink:href="#DejaVuSans-69" transform="translate(154.525391 0)"/>
      <use xlink:href="#DejaVuSans-67" transform="translate(182.308594 0)"/>
      <use xlink:href="#DejaVuSans-68" transform="translate(245.785156 0)"/>
      <use xlink:href="#DejaVuSans-74" transform="translate(309.164062 0)"/>
      <use xlink:href="#DejaVuSans-20" transform="translate(348.373047 0)"/>
      <use xlink:href="#DejaVuSans-5b" transform="translate(380.160156 0)"/>
      <use xlink:href="#DejaVuSans-6b" transform="translate(419.173828 0)"/>
      <use xlink:href="#DejaVuSans-67" transform="translate(477.083984 0)"/>
      <use xlink:href="#DejaVuSans-5d" transform="translate(540.560547 0)"/>
     </g>
    </g>
   </g>
   <g id="patch_3">
    <path d="M 60.14 302.92 
L 60.14 10.8 
" style="fill: none; stroke: #000000; stroke-width: 0.8; stroke-linejoin: miter; stroke-linecap: square"/>
   </g>
   <g id="patch_4">
    <path d="M 448.917857 302.92 
L 448.917857 10.8 
" style="fill: none; stroke: #000000; stroke-width: 0.8; stroke-linejoin: miter; stroke-linecap: square"/>
   </g>
   <g id="patch_5">
    <path d="M 60.14 302.92 
L 448.917857 302.92 
" style="fill: none; stroke: #000000; stroke-width: 0.8; stroke-linejoin: miter; stroke-linecap: square"/>
   </g>
   <g id="patch_6">
    <path d="M 60.14 10.8 
L 448.917857 10.8 
" style="fill: none; stroke: #000000; stroke-width: 0.8; stroke-linejoin: miter; stroke-linecap: square"/>
   </g>
  </g>
 </g>
 <defs>
  <clipPath id="pe1434b2ee7">
   <rect x="60.14" y="10.8" width="388.777857" height="292.12"/>
  </clipPath>
 </defs>
</svg>
