<?xml version="1.0" encoding="utf-8" standalone="no"?>
<!DOCTYPE svg PUBLIC "-//W3C//DTD SVG 1.1//EN"
  "http://www.w3.org/Graphics/SVG/1.1/DTD/svg11.dtd">
<svg xmlns:xlink="http://www.w3.org/1999/xlink" width="460.8pt" height="345.6pt" viewBox="0 0 460.8 345.6" xmlns="http://www.w3.org/2000/svg" version="1.1">
 <metadata>
  <rdf:RDF xmlns:dc="http://purl.org/dc/elements/1.1/" xmlns:cc="http://creativecommons.org/ns#" xmlns:rdf="http://www.w3.org/1999/02/22-rdf-syntax-ns#">
   <cc:Work>
    <dc:type rdf:resource="http://purl.org/dc/dcmitype/StillImage"/>
    <dc:date>2025-04-23T12:20:23.536330</dc:date>
    <dc:format>image/svg+xml</dc:format>
    <dc:creator>
     <cc:Agent>
      <dc:title>Matplotlib v3.10.1, https://matplotlib.org/</dc:title>
     </cc:Agent>
    </dc:creator>
   </cc:Work>
  </rdf:RDF>
 </metadata>
 <defs>
  <style type="text/css">*{stroke-linejoin: round; stroke-linecap: butt}</style>
 </defs>
 <g id="figure_1">
  <g id="patch_1">
   <path d="M 0 345.6 
L 460.8 345.6 
L 460.8 0 
L 0 0 
z
" style="fill: #ffffff"/>
  </g>
  <g id="axes_1">
   <g id="patch_2">
    <path d="M 54.92 302.92 
L 450 302.92 
L 450 10.8 
L 54.92 10.8 
z
" style="fill: #ffffff"/>
   </g>
   <g id="PathCollection_1">
    <defs>
     <path id="m738d6e1859" d="M 0 2.236068 
C 0.593012 2.236068 1.161816 2.000462 1.581139 1.581139 
C 2.000462 1.161816 2.236068 0.593012 2.236068 0 
C 2.236068 -0.593012 2.000462 -1.161816 1.581139 -1.581139 
C 1.161816 -2.000462 0.593012 -2.236068 0 -2.236068 
C -0.593012 -2.236068 -1.161816 -2.000462 -1.581139 -1.581139 
C -2.000462 -1.161816 -2.236068 -0.593012 -2.236068 0 
C -2.236068 0.593012 -2.000462 1.161816 -1.581139 1.581139 
C -1.161816 2.000462 -0.593012 2.236068 0 2.236068 
z
" style="stroke: #8b0000"/>
    </defs>
    <g clip-path="url(#p130dca9f68)">
     <use xlink:href="#m738d6e1859" x="288.042523" y="147.786747" style="fill: #8b0000; stroke: #8b0000"/>
     <use xlink:href="#m738d6e1859" x="228.248218" y="176.332135" style="fill: #8b0000; stroke: #8b0000"/>
     <use xlink:href="#m738d6e1859" x="239.596133" y="159.31509" style="fill: #8b0000; stroke: #8b0000"/>
     <use xlink:href="#m738d6e1859" x="316.200719" y="88.493708" style="fill: #8b0000; stroke: #8b0000"/>
     <use xlink:href="#m738d6e1859" x="226.114844" y="189.795192" style="fill: #8b0000; stroke: #8b0000"/>
     <use xlink:href="#m738d6e1859" x="331.934868" y="70.750971" style="fill: #8b0000; stroke: #8b0000"/>
     <use xlink:href="#m738d6e1859" x="161.710947" y="246.816682" style="fill: #8b0000; stroke: #8b0000"/>
     <use xlink:href="#m738d6e1859" x="314.185398" y="102.974751" style="fill: #8b0000; stroke: #8b0000"/>
     <use xlink:href="#m738d6e1859" x="422.04431" y="51.950255" style="fill: #8b0000; stroke: #8b0000"/>
     <use xlink:href="#m738d6e1859" x="310.356172" y="86.275993" style="fill: #8b0000; stroke: #8b0000"/>
     <use xlink:href="#m738d6e1859" x="243.032673" y="163.610717" style="fill: #8b0000; stroke: #8b0000"/>
     <use xlink:href="#m738d6e1859" x="238.628917" y="180.38917" style="fill: #8b0000; stroke: #8b0000"/>
     <use xlink:href="#m738d6e1859" x="218.11772" y="165.884512" style="fill: #8b0000; stroke: #8b0000"/>
     <use xlink:href="#m738d6e1859" x="148.417093" y="248.521585" style="fill: #8b0000; stroke: #8b0000"/>
     <use xlink:href="#m738d6e1859" x="115.165624" y="240.534378" style="fill: #8b0000; stroke: #8b0000"/>
     <use xlink:href="#m738d6e1859" x="201.15348" y="194.572013" style="fill: #8b0000; stroke: #8b0000"/>
     <use xlink:href="#m738d6e1859" x="231.747681" y="174.90781" style="fill: #8b0000; stroke: #8b0000"/>
     <use xlink:href="#m738d6e1859" x="284.154069" y="127.499083" style="fill: #8b0000; stroke: #8b0000"/>
     <use xlink:href="#m738d6e1859" x="239.029483" y="155.546179" style="fill: #8b0000; stroke: #8b0000"/>
     <use xlink:href="#m738d6e1859" x="315.172611" y="92.676904" style="fill: #8b0000; stroke: #8b0000"/>
     <use xlink:href="#m738d6e1859" x="405.638514" y="30.502699" style="fill: #8b0000; stroke: #8b0000"/>
     <use xlink:href="#m738d6e1859" x="297.536137" y="115.071639" style="fill: #8b0000; stroke: #8b0000"/>
     <use xlink:href="#m738d6e1859" x="261.026116" y="139.278025" style="fill: #8b0000; stroke: #8b0000"/>
     <use xlink:href="#m738d6e1859" x="338.530528" y="97.53632" style="fill: #8b0000; stroke: #8b0000"/>
     <use xlink:href="#m738d6e1859" x="210.489117" y="201.929109" style="fill: #8b0000; stroke: #8b0000"/>
     <use xlink:href="#m738d6e1859" x="259.505398" y="183.077417" style="fill: #8b0000; stroke: #8b0000"/>
     <use xlink:href="#m738d6e1859" x="274.239562" y="109.65056" style="fill: #8b0000; stroke: #8b0000"/>
     <use xlink:href="#m738d6e1859" x="245.574424" y="150.348152" style="fill: #8b0000; stroke: #8b0000"/>
     <use xlink:href="#m738d6e1859" x="221.864478" y="150.731172" style="fill: #8b0000; stroke: #8b0000"/>
     <use xlink:href="#m738d6e1859" x="330.227681" y="73.755235" style="fill: #8b0000; stroke: #8b0000"/>
     <use xlink:href="#m738d6e1859" x="256.947777" y="144.634999" style="fill: #8b0000; stroke: #8b0000"/>
     <use xlink:href="#m738d6e1859" x="208.555446" y="216.241387" style="fill: #8b0000; stroke: #8b0000"/>
     <use xlink:href="#m738d6e1859" x="227.604336" y="184.78777" style="fill: #8b0000; stroke: #8b0000"/>
     <use xlink:href="#m738d6e1859" x="348.976792" y="75.584969" style="fill: #8b0000; stroke: #8b0000"/>
     <use xlink:href="#m738d6e1859" x="315.74204" y="97.339908" style="fill: #8b0000; stroke: #8b0000"/>
     <use xlink:href="#m738d6e1859" x="248.93176" y="150.051039" style="fill: #8b0000; stroke: #8b0000"/>
     <use xlink:href="#m738d6e1859" x="319.191506" y="78.753911" style="fill: #8b0000; stroke: #8b0000"/>
     <use xlink:href="#m738d6e1859" x="380.77215" y="42.56464" style="fill: #8b0000; stroke: #8b0000"/>
     <use xlink:href="#m738d6e1859" x="267.283852" y="112.050236" style="fill: #8b0000; stroke: #8b0000"/>
     <use xlink:href="#m738d6e1859" x="302.475725" y="101.981305" style="fill: #8b0000; stroke: #8b0000"/>
     <use xlink:href="#m738d6e1859" x="106.15391" y="262.353146" style="fill: #8b0000; stroke: #8b0000"/>
     <use xlink:href="#m738d6e1859" x="330.986781" y="113.480043" style="fill: #8b0000; stroke: #8b0000"/>
     <use xlink:href="#m738d6e1859" x="285.492997" y="145.281563" style="fill: #8b0000; stroke: #8b0000"/>
     <use xlink:href="#m738d6e1859" x="149.109679" y="196.864541" style="fill: #8b0000; stroke: #8b0000"/>
     <use xlink:href="#m738d6e1859" x="226.189828" y="171.254341" style="fill: #8b0000; stroke: #8b0000"/>
     <use xlink:href="#m738d6e1859" x="295.91202" y="104.336786" style="fill: #8b0000; stroke: #8b0000"/>
     <use xlink:href="#m738d6e1859" x="244.595432" y="195.699226" style="fill: #8b0000; stroke: #8b0000"/>
     <use xlink:href="#m738d6e1859" x="307.35919" y="107.734677" style="fill: #8b0000; stroke: #8b0000"/>
     <use xlink:href="#m738d6e1859" x="235.794739" y="143.730605" style="fill: #8b0000; stroke: #8b0000"/>
     <use xlink:href="#m738d6e1859" x="229.110123" y="178.909823" style="fill: #8b0000; stroke: #8b0000"/>
     <use xlink:href="#m738d6e1859" x="239.255325" y="181.663533" style="fill: #8b0000; stroke: #8b0000"/>
     <use xlink:href="#m738d6e1859" x="300.112832" y="105.69518" style="fill: #8b0000; stroke: #8b0000"/>
     <use xlink:href="#m738d6e1859" x="306.137611" y="119.79187" style="fill: #8b0000; stroke: #8b0000"/>
     <use xlink:href="#m738d6e1859" x="285.417438" y="106.125437" style="fill: #8b0000; stroke: #8b0000"/>
     <use xlink:href="#m738d6e1859" x="272.391372" y="104.534553" style="fill: #8b0000; stroke: #8b0000"/>
     <use xlink:href="#m738d6e1859" x="300.270286" y="134.966889" style="fill: #8b0000; stroke: #8b0000"/>
     <use xlink:href="#m738d6e1859" x="350.617677" y="93.881227" style="fill: #8b0000; stroke: #8b0000"/>
     <use xlink:href="#m738d6e1859" x="127.938648" y="212.896047" style="fill: #8b0000; stroke: #8b0000"/>
     <use xlink:href="#m738d6e1859" x="282.49493" y="114.322094" style="fill: #8b0000; stroke: #8b0000"/>
     <use xlink:href="#m738d6e1859" x="138.986548" y="227.342833" style="fill: #8b0000; stroke: #8b0000"/>
     <use xlink:href="#m738d6e1859" x="246.40291" y="159.851411" style="fill: #8b0000; stroke: #8b0000"/>
     <use xlink:href="#m738d6e1859" x="302.102328" y="143.191739" style="fill: #8b0000; stroke: #8b0000"/>
     <use xlink:href="#m738d6e1859" x="295.379475" y="121.242415" style="fill: #8b0000; stroke: #8b0000"/>
     <use xlink:href="#m738d6e1859" x="289.174219" y="136.937252" style="fill: #8b0000; stroke: #8b0000"/>
     <use xlink:href="#m738d6e1859" x="206.769752" y="180.506326" style="fill: #8b0000; stroke: #8b0000"/>
     <use xlink:href="#m738d6e1859" x="366.990793" y="85.769433" style="fill: #8b0000; stroke: #8b0000"/>
     <use xlink:href="#m738d6e1859" x="329.180931" y="110.679693" style="fill: #8b0000; stroke: #8b0000"/>
     <use xlink:href="#m738d6e1859" x="290.372632" y="124.15191" style="fill: #8b0000; stroke: #8b0000"/>
     <use xlink:href="#m738d6e1859" x="208.065871" y="171.268822" style="fill: #8b0000; stroke: #8b0000"/>
     <use xlink:href="#m738d6e1859" x="334.606855" y="131.831648" style="fill: #8b0000; stroke: #8b0000"/>
     <use xlink:href="#m738d6e1859" x="321.310203" y="124.406118" style="fill: #8b0000; stroke: #8b0000"/>
     <use xlink:href="#m738d6e1859" x="160.057525" y="205.610035" style="fill: #8b0000; stroke: #8b0000"/>
     <use xlink:href="#m738d6e1859" x="254.650426" y="141.520844" style="fill: #8b0000; stroke: #8b0000"/>
     <use xlink:href="#m738d6e1859" x="253.656489" y="166.593203" style="fill: #8b0000; stroke: #8b0000"/>
     <use xlink:href="#m738d6e1859" x="288.565327" y="115.482292" style="fill: #8b0000; stroke: #8b0000"/>
     <use xlink:href="#m738d6e1859" x="313.439892" y="85.118519" style="fill: #8b0000; stroke: #8b0000"/>
     <use xlink:href="#m738d6e1859" x="315.456515" y="89.260278" style="fill: #8b0000; stroke: #8b0000"/>
     <use xlink:href="#m738d6e1859" x="240.62282" y="141.019153" style="fill: #8b0000; stroke: #8b0000"/>
     <use xlink:href="#m738d6e1859" x="271.731729" y="118.823186" style="fill: #8b0000; stroke: #8b0000"/>
     <use xlink:href="#m738d6e1859" x="170.379274" y="238.059113" style="fill: #8b0000; stroke: #8b0000"/>
     <use xlink:href="#m738d6e1859" x="72.878182" y="289.641818" style="fill: #8b0000; stroke: #8b0000"/>
     <use xlink:href="#m738d6e1859" x="327.649768" y="120.635927" style="fill: #8b0000; stroke: #8b0000"/>
     <use xlink:href="#m738d6e1859" x="243.466972" y="149.435893" style="fill: #8b0000; stroke: #8b0000"/>
     <use xlink:href="#m738d6e1859" x="322.457553" y="94.015674" style="fill: #8b0000; stroke: #8b0000"/>
     <use xlink:href="#m738d6e1859" x="376.728757" y="81.75867" style="fill: #8b0000; stroke: #8b0000"/>
     <use xlink:href="#m738d6e1859" x="172.169616" y="216.097566" style="fill: #8b0000; stroke: #8b0000"/>
     <use xlink:href="#m738d6e1859" x="312.826414" y="96.521384" style="fill: #8b0000; stroke: #8b0000"/>
     <use xlink:href="#m738d6e1859" x="253.597643" y="155.566083" style="fill: #8b0000; stroke: #8b0000"/>
     <use xlink:href="#m738d6e1859" x="340.628154" y="111.447136" style="fill: #8b0000; stroke: #8b0000"/>
     <use xlink:href="#m738d6e1859" x="194.483346" y="178.294823" style="fill: #8b0000; stroke: #8b0000"/>
     <use xlink:href="#m738d6e1859" x="432.041818" y="29.202886" style="fill: #8b0000; stroke: #8b0000"/>
     <use xlink:href="#m738d6e1859" x="218.279737" y="171.829543" style="fill: #8b0000; stroke: #8b0000"/>
     <use xlink:href="#m738d6e1859" x="257.520993" y="160.318297" style="fill: #8b0000; stroke: #8b0000"/>
     <use xlink:href="#m738d6e1859" x="274.636323" y="124.283053" style="fill: #8b0000; stroke: #8b0000"/>
     <use xlink:href="#m738d6e1859" x="347.359809" y="89.799991" style="fill: #8b0000; stroke: #8b0000"/>
     <use xlink:href="#m738d6e1859" x="304.138429" y="128.432834" style="fill: #8b0000; stroke: #8b0000"/>
     <use xlink:href="#m738d6e1859" x="242.257545" y="172.008731" style="fill: #8b0000; stroke: #8b0000"/>
     <use xlink:href="#m738d6e1859" x="278.88572" y="158.656307" style="fill: #8b0000; stroke: #8b0000"/>
     <use xlink:href="#m738d6e1859" x="262.898111" y="173.804265" style="fill: #8b0000; stroke: #8b0000"/>
     <use xlink:href="#m738d6e1859" x="154.370391" y="179.025805" style="fill: #8b0000; stroke: #8b0000"/>
     <use xlink:href="#m738d6e1859" x="252.778515" y="146.345402" style="fill: #8b0000; stroke: #8b0000"/>
     <use xlink:href="#m738d6e1859" x="263.128238" y="142.941454" style="fill: #8b0000; stroke: #8b0000"/>
     <use xlink:href="#m738d6e1859" x="198.741282" y="159.368563" style="fill: #8b0000; stroke: #8b0000"/>
     <use xlink:href="#m738d6e1859" x="220.460047" y="194.366347" style="fill: #8b0000; stroke: #8b0000"/>
     <use xlink:href="#m738d6e1859" x="223.025251" y="188.353065" style="fill: #8b0000; stroke: #8b0000"/>
     <use xlink:href="#m738d6e1859" x="224.307856" y="160.862248" style="fill: #8b0000; stroke: #8b0000"/>
     <use xlink:href="#m738d6e1859" x="336.639882" y="100.870056" style="fill: #8b0000; stroke: #8b0000"/>
     <use xlink:href="#m738d6e1859" x="233.734644" y="160.077161" style="fill: #8b0000; stroke: #8b0000"/>
     <use xlink:href="#m738d6e1859" x="271.270024" y="103.38707" style="fill: #8b0000; stroke: #8b0000"/>
     <use xlink:href="#m738d6e1859" x="373.581315" y="87.842387" style="fill: #8b0000; stroke: #8b0000"/>
     <use xlink:href="#m738d6e1859" x="290.675228" y="117.756812" style="fill: #8b0000; stroke: #8b0000"/>
     <use xlink:href="#m738d6e1859" x="344.809543" y="106.84966" style="fill: #8b0000; stroke: #8b0000"/>
     <use xlink:href="#m738d6e1859" x="343.690942" y="131.545326" style="fill: #8b0000; stroke: #8b0000"/>
     <use xlink:href="#m738d6e1859" x="309.792846" y="73.184483" style="fill: #8b0000; stroke: #8b0000"/>
     <use xlink:href="#m738d6e1859" x="341.585296" y="100.819554" style="fill: #8b0000; stroke: #8b0000"/>
     <use xlink:href="#m738d6e1859" x="140.118198" y="262.35918" style="fill: #8b0000; stroke: #8b0000"/>
     <use xlink:href="#m738d6e1859" x="386.931395" y="82.731249" style="fill: #8b0000; stroke: #8b0000"/>
     <use xlink:href="#m738d6e1859" x="370.299114" y="34.853464" style="fill: #8b0000; stroke: #8b0000"/>
     <use xlink:href="#m738d6e1859" x="186.669897" y="170.121808" style="fill: #8b0000; stroke: #8b0000"/>
     <use xlink:href="#m738d6e1859" x="264.96245" y="156.042088" style="fill: #8b0000; stroke: #8b0000"/>
     <use xlink:href="#m738d6e1859" x="239.335596" y="142.827544" style="fill: #8b0000; stroke: #8b0000"/>
     <use xlink:href="#m738d6e1859" x="332.250525" y="108.307244" style="fill: #8b0000; stroke: #8b0000"/>
     <use xlink:href="#m738d6e1859" x="308.360001" y="127.504216" style="fill: #8b0000; stroke: #8b0000"/>
     <use xlink:href="#m738d6e1859" x="306.82142" y="111.163424" style="fill: #8b0000; stroke: #8b0000"/>
     <use xlink:href="#m738d6e1859" x="175.140917" y="219.528514" style="fill: #8b0000; stroke: #8b0000"/>
     <use xlink:href="#m738d6e1859" x="363.522223" y="70.225509" style="fill: #8b0000; stroke: #8b0000"/>
     <use xlink:href="#m738d6e1859" x="332.758068" y="102.475625" style="fill: #8b0000; stroke: #8b0000"/>
     <use xlink:href="#m738d6e1859" x="322.594205" y="104.812966" style="fill: #8b0000; stroke: #8b0000"/>
     <use xlink:href="#m738d6e1859" x="243.845105" y="185.977096" style="fill: #8b0000; stroke: #8b0000"/>
     <use xlink:href="#m738d6e1859" x="269.794801" y="143.817928" style="fill: #8b0000; stroke: #8b0000"/>
     <use xlink:href="#m738d6e1859" x="291.011165" y="105.290215" style="fill: #8b0000; stroke: #8b0000"/>
     <use xlink:href="#m738d6e1859" x="202.535005" y="203.931113" style="fill: #8b0000; stroke: #8b0000"/>
     <use xlink:href="#m738d6e1859" x="290.382317" y="122.735058" style="fill: #8b0000; stroke: #8b0000"/>
     <use xlink:href="#m738d6e1859" x="316.56443" y="93.935621" style="fill: #8b0000; stroke: #8b0000"/>
     <use xlink:href="#m738d6e1859" x="210.815616" y="180.981949" style="fill: #8b0000; stroke: #8b0000"/>
     <use xlink:href="#m738d6e1859" x="300.561121" y="123.318873" style="fill: #8b0000; stroke: #8b0000"/>
     <use xlink:href="#m738d6e1859" x="166.228545" y="199.775484" style="fill: #8b0000; stroke: #8b0000"/>
     <use xlink:href="#m738d6e1859" x="258.067772" y="158.294133" style="fill: #8b0000; stroke: #8b0000"/>
     <use xlink:href="#m738d6e1859" x="269.738911" y="124.22295" style="fill: #8b0000; stroke: #8b0000"/>
     <use xlink:href="#m738d6e1859" x="205.36051" y="116.427929" style="fill: #8b0000; stroke: #8b0000"/>
     <use xlink:href="#m738d6e1859" x="249.216501" y="142.424485" style="fill: #8b0000; stroke: #8b0000"/>
     <use xlink:href="#m738d6e1859" x="295.510343" y="126.330945" style="fill: #8b0000; stroke: #8b0000"/>
     <use xlink:href="#m738d6e1859" x="300.061558" y="130.32556" style="fill: #8b0000; stroke: #8b0000"/>
     <use xlink:href="#m738d6e1859" x="267.945106" y="145.637689" style="fill: #8b0000; stroke: #8b0000"/>
     <use xlink:href="#m738d6e1859" x="244.96576" y="146.151997" style="fill: #8b0000; stroke: #8b0000"/>
     <use xlink:href="#m738d6e1859" x="243.156207" y="167.58724" style="fill: #8b0000; stroke: #8b0000"/>
     <use xlink:href="#m738d6e1859" x="257.750625" y="176.27675" style="fill: #8b0000; stroke: #8b0000"/>
     <use xlink:href="#m738d6e1859" x="255.105538" y="138.3436" style="fill: #8b0000; stroke: #8b0000"/>
     <use xlink:href="#m738d6e1859" x="254.407006" y="162.11529" style="fill: #8b0000; stroke: #8b0000"/>
     <use xlink:href="#m738d6e1859" x="333.114513" y="114.841998" style="fill: #8b0000; stroke: #8b0000"/>
     <use xlink:href="#m738d6e1859" x="240.853431" y="155.197879" style="fill: #8b0000; stroke: #8b0000"/>
     <use xlink:href="#m738d6e1859" x="248.823418" y="134.901788" style="fill: #8b0000; stroke: #8b0000"/>
     <use xlink:href="#m738d6e1859" x="155.037797" y="231.822813" style="fill: #8b0000; stroke: #8b0000"/>
     <use xlink:href="#m738d6e1859" x="376.584983" y="72.026862" style="fill: #8b0000; stroke: #8b0000"/>
     <use xlink:href="#m738d6e1859" x="307.086126" y="112.975727" style="fill: #8b0000; stroke: #8b0000"/>
     <use xlink:href="#m738d6e1859" x="200.007578" y="172.424343" style="fill: #8b0000; stroke: #8b0000"/>
     <use xlink:href="#m738d6e1859" x="303.73462" y="132.477873" style="fill: #8b0000; stroke: #8b0000"/>
     <use xlink:href="#m738d6e1859" x="385.87083" y="57.052283" style="fill: #8b0000; stroke: #8b0000"/>
     <use xlink:href="#m738d6e1859" x="290.893053" y="101.324591" style="fill: #8b0000; stroke: #8b0000"/>
     <use xlink:href="#m738d6e1859" x="267.964914" y="148.143648" style="fill: #8b0000; stroke: #8b0000"/>
     <use xlink:href="#m738d6e1859" x="268.338083" y="120.388381" style="fill: #8b0000; stroke: #8b0000"/>
     <use xlink:href="#m738d6e1859" x="428.053157" y="24.078182" style="fill: #8b0000; stroke: #8b0000"/>
     <use xlink:href="#m738d6e1859" x="307.147053" y="81.055311" style="fill: #8b0000; stroke: #8b0000"/>
     <use xlink:href="#m738d6e1859" x="209.495714" y="190.16973" style="fill: #8b0000; stroke: #8b0000"/>
     <use xlink:href="#m738d6e1859" x="285.140643" y="132.187085" style="fill: #8b0000; stroke: #8b0000"/>
     <use xlink:href="#m738d6e1859" x="354.728634" y="63.745131" style="fill: #8b0000; stroke: #8b0000"/>
     <use xlink:href="#m738d6e1859" x="329.058642" y="84.975894" style="fill: #8b0000; stroke: #8b0000"/>
     <use xlink:href="#m738d6e1859" x="309.135946" y="99.724904" style="fill: #8b0000; stroke: #8b0000"/>
     <use xlink:href="#m738d6e1859" x="321.104507" y="96.908068" style="fill: #8b0000; stroke: #8b0000"/>
     <use xlink:href="#m738d6e1859" x="383.605605" y="62.234722" style="fill: #8b0000; stroke: #8b0000"/>
     <use xlink:href="#m738d6e1859" x="282.455604" y="151.087646" style="fill: #8b0000; stroke: #8b0000"/>
     <use xlink:href="#m738d6e1859" x="330.145156" y="91.553859" style="fill: #8b0000; stroke: #8b0000"/>
     <use xlink:href="#m738d6e1859" x="326.106694" y="127.330122" style="fill: #8b0000; stroke: #8b0000"/>
     <use xlink:href="#m738d6e1859" x="189.109626" y="207.477792" style="fill: #8b0000; stroke: #8b0000"/>
     <use xlink:href="#m738d6e1859" x="344.05035" y="65.321798" style="fill: #8b0000; stroke: #8b0000"/>
     <use xlink:href="#m738d6e1859" x="213.676725" y="177.189395" style="fill: #8b0000; stroke: #8b0000"/>
     <use xlink:href="#m738d6e1859" x="263.191257" y="127.516299" style="fill: #8b0000; stroke: #8b0000"/>
     <use xlink:href="#m738d6e1859" x="142.55458" y="241.816914" style="fill: #8b0000; stroke: #8b0000"/>
     <use xlink:href="#m738d6e1859" x="180.004346" y="221.938668" style="fill: #8b0000; stroke: #8b0000"/>
     <use xlink:href="#m738d6e1859" x="284.317066" y="143.635143" style="fill: #8b0000; stroke: #8b0000"/>
     <use xlink:href="#m738d6e1859" x="188.488114" y="196.277322" style="fill: #8b0000; stroke: #8b0000"/>
     <use xlink:href="#m738d6e1859" x="318.606616" y="86.405453" style="fill: #8b0000; stroke: #8b0000"/>
     <use xlink:href="#m738d6e1859" x="320.955587" y="73.432183" style="fill: #8b0000; stroke: #8b0000"/>
     <use xlink:href="#m738d6e1859" x="351.935479" y="98.501391" style="fill: #8b0000; stroke: #8b0000"/>
     <use xlink:href="#m738d6e1859" x="293.334653" y="146.747335" style="fill: #8b0000; stroke: #8b0000"/>
     <use xlink:href="#m738d6e1859" x="244.652853" y="159.41104" style="fill: #8b0000; stroke: #8b0000"/>
     <use xlink:href="#m738d6e1859" x="352.514975" y="74.835188" style="fill: #8b0000; stroke: #8b0000"/>
     <use xlink:href="#m738d6e1859" x="327.059429" y="99.407175" style="fill: #8b0000; stroke: #8b0000"/>
     <use xlink:href="#m738d6e1859" x="254.567186" y="173.972285" style="fill: #8b0000; stroke: #8b0000"/>
     <use xlink:href="#m738d6e1859" x="277.808611" y="140.694321" style="fill: #8b0000; stroke: #8b0000"/>
     <use xlink:href="#m738d6e1859" x="303.665532" y="100.633927" style="fill: #8b0000; stroke: #8b0000"/>
     <use xlink:href="#m738d6e1859" x="300.221767" y="117.072542" style="fill: #8b0000; stroke: #8b0000"/>
     <use xlink:href="#m738d6e1859" x="386.686776" y="36.048273" style="fill: #8b0000; stroke: #8b0000"/>
     <use xlink:href="#m738d6e1859" x="228.797241" y="180.130895" style="fill: #8b0000; stroke: #8b0000"/>
     <use xlink:href="#m738d6e1859" x="307.15725" y="140.217736" style="fill: #8b0000; stroke: #8b0000"/>
     <use xlink:href="#m738d6e1859" x="339.091067" y="109.462985" style="fill: #8b0000; stroke: #8b0000"/>
     <use xlink:href="#m738d6e1859" x="375.214287" y="79.384556" style="fill: #8b0000; stroke: #8b0000"/>
     <use xlink:href="#m738d6e1859" x="330.916108" y="96.101422" style="fill: #8b0000; stroke: #8b0000"/>
     <use xlink:href="#m738d6e1859" x="197.5697" y="210.703374" style="fill: #8b0000; stroke: #8b0000"/>
     <use xlink:href="#m738d6e1859" x="162.415612" y="215.808603" style="fill: #8b0000; stroke: #8b0000"/>
    </g>
   </g>
   <g id="matplotlib.axis_1">
    <g id="xtick_1">
     <g id="line2d_1">
      <defs>
       <path id="mb424c762e4" d="M 0 0 
L 0 3.5 
" style="stroke: #000000; stroke-width: 0.8"/>
      </defs>
      <g>
       <use xlink:href="#mb424c762e4" x="63.217445" y="302.92" style="stroke: #000000; stroke-width: 0.8"/>
      </g>
     </g>
     <g id="text_1">
      <!-- 40 -->
      <g transform="translate(56.854945 317.518437) scale(0.1 -0.1)">
       <defs>
        <path id="DejaVuSans-34" d="M 2419 4116 
L 825 1625 
L 2419 1625 
L 2419 4116 
z
M 2253 4666 
L 3047 4666 
L 3047 1625 
L 3713 1625 
L 3713 1100 
L 3047 1100 
L 3047 0 
L 2419 0 
L 2419 1100 
L 313 1100 
L 313 1709 
L 2253 4666 
z
" transform="scale(0.015625)"/>
        <path id="DejaVuSans-30" d="M 2034 4250 
Q 1547 4250 1301 3770 
Q 1056 3291 1056 2328 
Q 1056 1369 1301 889 
Q 1547 409 2034 409 
Q 2525 409 2770 889 
Q 3016 1369 3016 2328 
Q 3016 3291 2770 3770 
Q 2525 4250 2034 4250 
z
M 2034 4750 
Q 2819 4750 3233 4129 
Q 3647 3509 3647 2328 
Q 3647 1150 3233 529 
Q 2819 -91 2034 -91 
Q 1250 -91 836 529 
Q 422 1150 422 2328 
Q 422 3509 836 4129 
Q 1250 4750 2034 4750 
z
" transform="scale(0.015625)"/>
       </defs>
       <use xlink:href="#DejaVuSans-34"/>
       <use xlink:href="#DejaVuSans-30" transform="translate(63.623047 0)"/>
      </g>
     </g>
    </g>
    <g id="xtick_2">
     <g id="line2d_2">
      <g>
       <use xlink:href="#mb424c762e4" x="129.254359" y="302.92" style="stroke: #000000; stroke-width: 0.8"/>
      </g>
     </g>
     <g id="text_2">
      <!-- 50 -->
      <g transform="translate(122.891859 317.518437) scale(0.1 -0.1)">
       <defs>
        <path id="DejaVuSans-35" d="M 691 4666 
L 3169 4666 
L 3169 4134 
L 1269 4134 
L 1269 2991 
Q 1406 3038 1543 3061 
Q 1681 3084 1819 3084 
Q 2600 3084 3056 2656 
Q 3513 2228 3513 1497 
Q 3513 744 3044 326 
Q 2575 -91 1722 -91 
Q 1428 -91 1123 -41 
Q 819 9 494 109 
L 494 744 
Q 775 591 1075 516 
Q 1375 441 1709 441 
Q 2250 441 2565 725 
Q 2881 1009 2881 1497 
Q 2881 1984 2565 2268 
Q 2250 2553 1709 2553 
Q 1456 2553 1204 2497 
Q 953 2441 691 2322 
L 691 4666 
z
" transform="scale(0.015625)"/>
       </defs>
       <use xlink:href="#DejaVuSans-35"/>
       <use xlink:href="#DejaVuSans-30" transform="translate(63.623047 0)"/>
      </g>
     </g>
    </g>
    <g id="xtick_3">
     <g id="line2d_3">
      <g>
       <use xlink:href="#mb424c762e4" x="195.291273" y="302.92" style="stroke: #000000; stroke-width: 0.8"/>
      </g>
     </g>
     <g id="text_3">
      <!-- 60 -->
      <g transform="translate(188.928773 317.518437) scale(0.1 -0.1)">
       <defs>
        <path id="DejaVuSans-36" d="M 2113 2584 
Q 1688 2584 1439 2293 
Q 1191 2003 1191 1497 
Q 1191 994 1439 701 
Q 1688 409 2113 409 
Q 2538 409 2786 701 
Q 3034 994 3034 1497 
Q 3034 2003 2786 2293 
Q 2538 2584 2113 2584 
z
M 3366 4563 
L 3366 3988 
Q 3128 4100 2886 4159 
Q 2644 4219 2406 4219 
Q 1781 4219 1451 3797 
Q 1122 3375 1075 2522 
Q 1259 2794 1537 2939 
Q 1816 3084 2150 3084 
Q 2853 3084 3261 2657 
Q 3669 2231 3669 1497 
Q 3669 778 3244 343 
Q 2819 -91 2113 -91 
Q 1303 -91 875 529 
Q 447 1150 447 2328 
Q 447 3434 972 4092 
Q 1497 4750 2381 4750 
Q 2619 4750 2861 4703 
Q 3103 4656 3366 4563 
z
" transform="scale(0.015625)"/>
       </defs>
       <use xlink:href="#DejaVuSans-36"/>
       <use xlink:href="#DejaVuSans-30" transform="translate(63.623047 0)"/>
      </g>
     </g>
    </g>
    <g id="xtick_4">
     <g id="line2d_4">
      <g>
       <use xlink:href="#mb424c762e4" x="261.328188" y="302.92" style="stroke: #000000; stroke-width: 0.8"/>
      </g>
     </g>
     <g id="text_4">
      <!-- 70 -->
      <g transform="translate(254.965688 317.518437) scale(0.1 -0.1)">
       <defs>
        <path id="DejaVuSans-37" d="M 525 4666 
L 3525 4666 
L 3525 4397 
L 1831 0 
L 1172 0 
L 2766 4134 
L 525 4134 
L 525 4666 
z
" transform="scale(0.015625)"/>
       </defs>
       <use xlink:href="#DejaVuSans-37"/>
       <use xlink:href="#DejaVuSans-30" transform="translate(63.623047 0)"/>
      </g>
     </g>
    </g>
    <g id="xtick_5">
     <g id="line2d_5">
      <g>
       <use xlink:href="#mb424c762e4" x="327.365102" y="302.92" style="stroke: #000000; stroke-width: 0.8"/>
      </g>
     </g>
     <g id="text_5">
      <!-- 80 -->
      <g transform="translate(321.002602 317.518437) scale(0.1 -0.1)">
       <defs>
        <path id="DejaVuSans-38" d="M 2034 2216 
Q 1584 2216 1326 1975 
Q 1069 1734 1069 1313 
Q 1069 891 1326 650 
Q 1584 409 2034 409 
Q 2484 409 2743 651 
Q 3003 894 3003 1313 
Q 3003 1734 2745 1975 
Q 2488 2216 2034 2216 
z
M 1403 2484 
Q 997 2584 770 2862 
Q 544 3141 544 3541 
Q 544 4100 942 4425 
Q 1341 4750 2034 4750 
Q 2731 4750 3128 4425 
Q 3525 4100 3525 3541 
Q 3525 3141 3298 2862 
Q 3072 2584 2669 2484 
Q 3125 2378 3379 2068 
Q 3634 1759 3634 1313 
Q 3634 634 3220 271 
Q 2806 -91 2034 -91 
Q 1263 -91 848 271 
Q 434 634 434 1313 
Q 434 1759 690 2068 
Q 947 2378 1403 2484 
z
M 1172 3481 
Q 1172 3119 1398 2916 
Q 1625 2713 2034 2713 
Q 2441 2713 2670 2916 
Q 2900 3119 2900 3481 
Q 2900 3844 2670 4047 
Q 2441 4250 2034 4250 
Q 1625 4250 1398 4047 
Q 1172 3844 1172 3481 
z
" transform="scale(0.015625)"/>
       </defs>
       <use xlink:href="#DejaVuSans-38"/>
       <use xlink:href="#DejaVuSans-30" transform="translate(63.623047 0)"/>
      </g>
     </g>
    </g>
    <g id="xtick_6">
     <g id="line2d_6">
      <g>
       <use xlink:href="#mb424c762e4" x="393.402016" y="302.92" style="stroke: #000000; stroke-width: 0.8"/>
      </g>
     </g>
     <g id="text_6">
      <!-- 90 -->
      <g transform="translate(387.039516 317.518437) scale(0.1 -0.1)">
       <defs>
        <path id="DejaVuSans-39" d="M 703 97 
L 703 672 
Q 941 559 1184 500 
Q 1428 441 1663 441 
Q 2288 441 2617 861 
Q 2947 1281 2994 2138 
Q 2813 1869 2534 1725 
Q 2256 1581 1919 1581 
Q 1219 1581 811 2004 
Q 403 2428 403 3163 
Q 403 3881 828 4315 
Q 1253 4750 1959 4750 
Q 2769 4750 3195 4129 
Q 3622 3509 3622 2328 
Q 3622 1225 3098 567 
Q 2575 -91 1691 -91 
Q 1453 -91 1209 -44 
Q 966 3 703 97 
z
M 1959 2075 
Q 2384 2075 2632 2365 
Q 2881 2656 2881 3163 
Q 2881 3666 2632 3958 
Q 2384 4250 1959 4250 
Q 1534 4250 1286 3958 
Q 1038 3666 1038 3163 
Q 1038 2656 1286 2365 
Q 1534 2075 1959 2075 
z
" transform="scale(0.015625)"/>
       </defs>
       <use xlink:href="#DejaVuSans-39"/>
       <use xlink:href="#DejaVuSans-30" transform="translate(63.623047 0)"/>
      </g>
     </g>
    </g>
    <g id="text_7">
     <!-- Diameter [mm] -->
     <g transform="translate(210.029219 331.956406) scale(0.11 -0.11)">
      <defs>
       <path id="DejaVuSans-44" d="M 1259 4147 
L 1259 519 
L 2022 519 
Q 2988 519 3436 956 
Q 3884 1394 3884 2338 
Q 3884 3275 3436 3711 
Q 2988 4147 2022 4147 
L 1259 4147 
z
M 628 4666 
L 1925 4666 
Q 3281 4666 3915 4102 
Q 4550 3538 4550 2338 
Q 4550 1131 3912 565 
Q 3275 0 1925 0 
L 628 0 
L 628 4666 
z
" transform="scale(0.015625)"/>
       <path id="DejaVuSans-69" d="M 603 3500 
L 1178 3500 
L 1178 0 
L 603 0 
L 603 3500 
z
M 603 4863 
L 1178 4863 
L 1178 4134 
L 603 4134 
L 603 4863 
z
" transform="scale(0.015625)"/>
       <path id="DejaVuSans-61" d="M 2194 1759 
Q 1497 1759 1228 1600 
Q 959 1441 959 1056 
Q 959 750 1161 570 
Q 1363 391 1709 391 
Q 2188 391 2477 730 
Q 2766 1069 2766 1631 
L 2766 1759 
L 2194 1759 
z
M 3341 1997 
L 3341 0 
L 2766 0 
L 2766 531 
Q 2569 213 2275 61 
Q 1981 -91 1556 -91 
Q 1019 -91 701 211 
Q 384 513 384 1019 
Q 384 1609 779 1909 
Q 1175 2209 1959 2209 
L 2766 2209 
L 2766 2266 
Q 2766 2663 2505 2880 
Q 2244 3097 1772 3097 
Q 1472 3097 1187 3025 
Q 903 2953 641 2809 
L 641 3341 
Q 956 3463 1253 3523 
Q 1550 3584 1831 3584 
Q 2591 3584 2966 3190 
Q 3341 2797 3341 1997 
z
" transform="scale(0.015625)"/>
       <path id="DejaVuSans-6d" d="M 3328 2828 
Q 3544 3216 3844 3400 
Q 4144 3584 4550 3584 
Q 5097 3584 5394 3201 
Q 5691 2819 5691 2113 
L 5691 0 
L 5113 0 
L 5113 2094 
Q 5113 2597 4934 2840 
Q 4756 3084 4391 3084 
Q 3944 3084 3684 2787 
Q 3425 2491 3425 1978 
L 3425 0 
L 2847 0 
L 2847 2094 
Q 2847 2600 2669 2842 
Q 2491 3084 2119 3084 
Q 1678 3084 1418 2786 
Q 1159 2488 1159 1978 
L 1159 0 
L 581 0 
L 581 3500 
L 1159 3500 
L 1159 2956 
Q 1356 3278 1631 3431 
Q 1906 3584 2284 3584 
Q 2666 3584 2933 3390 
Q 3200 3197 3328 2828 
z
" transform="scale(0.015625)"/>
       <path id="DejaVuSans-65" d="M 3597 1894 
L 3597 1613 
L 953 1613 
Q 991 1019 1311 708 
Q 1631 397 2203 397 
Q 2534 397 2845 478 
Q 3156 559 3463 722 
L 3463 178 
Q 3153 47 2828 -22 
Q 2503 -91 2169 -91 
Q 1331 -91 842 396 
Q 353 884 353 1716 
Q 353 2575 817 3079 
Q 1281 3584 2069 3584 
Q 2775 3584 3186 3129 
Q 3597 2675 3597 1894 
z
M 3022 2063 
Q 3016 2534 2758 2815 
Q 2500 3097 2075 3097 
Q 1594 3097 1305 2825 
Q 1016 2553 972 2059 
L 3022 2063 
z
" transform="scale(0.015625)"/>
       <path id="DejaVuSans-74" d="M 1172 4494 
L 1172 3500 
L 2356 3500 
L 2356 3053 
L 1172 3053 
L 1172 1153 
Q 1172 725 1289 603 
Q 1406 481 1766 481 
L 2356 481 
L 2356 0 
L 1766 0 
Q 1100 0 847 248 
Q 594 497 594 1153 
L 594 3053 
L 172 3053 
L 172 3500 
L 594 3500 
L 594 4494 
L 1172 4494 
z
" transform="scale(0.015625)"/>
       <path id="DejaVuSans-72" d="M 2631 2963 
Q 2534 3019 2420 3045 
Q 2306 3072 2169 3072 
Q 1681 3072 1420 2755 
Q 1159 2438 1159 1844 
L 1159 0 
L 581 0 
L 581 3500 
L 1159 3500 
L 1159 2956 
Q 1341 3275 1631 3429 
Q 1922 3584 2338 3584 
Q 2397 3584 2469 3576 
Q 2541 3569 2628 3553 
L 2631 2963 
z
" transform="scale(0.015625)"/>
       <path id="DejaVuSans-20" transform="scale(0.015625)"/>
       <path id="DejaVuSans-5b" d="M 550 4863 
L 1875 4863 
L 1875 4416 
L 1125 4416 
L 1125 -397 
L 1875 -397 
L 1875 -844 
L 550 -844 
L 550 4863 
z
" transform="scale(0.015625)"/>
       <path id="DejaVuSans-5d" d="M 1947 4863 
L 1947 -844 
L 622 -844 
L 622 -397 
L 1369 -397 
L 1369 4416 
L 622 4416 
L 622 4863 
L 1947 4863 
z
" transform="scale(0.015625)"/>
      </defs>
      <use xlink:href="#DejaVuSans-44"/>
      <use xlink:href="#DejaVuSans-69" transform="translate(77.001953 0)"/>
      <use xlink:href="#DejaVuSans-61" transform="translate(104.785156 0)"/>
      <use xlink:href="#DejaVuSans-6d" transform="translate(166.064453 0)"/>
      <use xlink:href="#DejaVuSans-65" transform="translate(263.476562 0)"/>
      <use xlink:href="#DejaVuSans-74" transform="translate(325 0)"/>
      <use xlink:href="#DejaVuSans-65" transform="translate(364.208984 0)"/>
      <use xlink:href="#DejaVuSans-72" transform="translate(425.732422 0)"/>
      <use xlink:href="#DejaVuSans-20" transform="translate(466.845703 0)"/>
      <use xlink:href="#DejaVuSans-5b" transform="translate(498.632812 0)"/>
      <use xlink:href="#DejaVuSans-6d" transform="translate(537.646484 0)"/>
      <use xlink:href="#DejaVuSans-6d" transform="translate(635.058594 0)"/>
      <use xlink:href="#DejaVuSans-5d" transform="translate(732.470703 0)"/>
     </g>
    </g>
   </g>
   <g id="matplotlib.axis_2">
    <g id="ytick_1">
     <g id="line2d_7">
      <defs>
       <path id="m9098b616a2" d="M 0 0 
L -3.5 0 
" style="stroke: #000000; stroke-width: 0.8"/>
      </defs>
      <g>
       <use xlink:href="#m9098b616a2" x="54.92" y="269.054235" style="stroke: #000000; stroke-width: 0.8"/>
      </g>
     </g>
     <g id="text_8">
      <!-- 0.08 -->
      <g transform="translate(25.654375 272.853454) scale(0.1 -0.1)">
       <defs>
        <path id="DejaVuSans-2e" d="M 684 794 
L 1344 794 
L 1344 0 
L 684 0 
L 684 794 
z
" transform="scale(0.015625)"/>
       </defs>
       <use xlink:href="#DejaVuSans-30"/>
       <use xlink:href="#DejaVuSans-2e" transform="translate(63.623047 0)"/>
       <use xlink:href="#DejaVuSans-30" transform="translate(95.410156 0)"/>
       <use xlink:href="#DejaVuSans-38" transform="translate(159.033203 0)"/>
      </g>
     </g>
    </g>
    <g id="ytick_2">
     <g id="line2d_8">
      <g>
       <use xlink:href="#m9098b616a2" x="54.92" y="223.789585" style="stroke: #000000; stroke-width: 0.8"/>
      </g>
     </g>
     <g id="text_9">
      <!-- 0.10 -->
      <g transform="translate(25.654375 227.588804) scale(0.1 -0.1)">
       <defs>
        <path id="DejaVuSans-31" d="M 794 531 
L 1825 531 
L 1825 4091 
L 703 3866 
L 703 4441 
L 1819 4666 
L 2450 4666 
L 2450 531 
L 3481 531 
L 3481 0 
L 794 0 
L 794 531 
z
" transform="scale(0.015625)"/>
       </defs>
       <use xlink:href="#DejaVuSans-30"/>
       <use xlink:href="#DejaVuSans-2e" transform="translate(63.623047 0)"/>
       <use xlink:href="#DejaVuSans-31" transform="translate(95.410156 0)"/>
       <use xlink:href="#DejaVuSans-30" transform="translate(159.033203 0)"/>
      </g>
     </g>
    </g>
    <g id="ytick_3">
     <g id="line2d_9">
      <g>
       <use xlink:href="#m9098b616a2" x="54.92" y="178.524935" style="stroke: #000000; stroke-width: 0.8"/>
      </g>
     </g>
     <g id="text_10">
      <!-- 0.12 -->
      <g transform="translate(25.654375 182.324154) scale(0.1 -0.1)">
       <defs>
        <path id="DejaVuSans-32" d="M 1228 531 
L 3431 531 
L 3431 0 
L 469 0 
L 469 531 
Q 828 903 1448 1529 
Q 2069 2156 2228 2338 
Q 2531 2678 2651 2914 
Q 2772 3150 2772 3378 
Q 2772 3750 2511 3984 
Q 2250 4219 1831 4219 
Q 1534 4219 1204 4116 
Q 875 4013 500 3803 
L 500 4441 
Q 881 4594 1212 4672 
Q 1544 4750 1819 4750 
Q 2544 4750 2975 4387 
Q 3406 4025 3406 3419 
Q 3406 3131 3298 2873 
Q 3191 2616 2906 2266 
Q 2828 2175 2409 1742 
Q 1991 1309 1228 531 
z
" transform="scale(0.015625)"/>
       </defs>
       <use xlink:href="#DejaVuSans-30"/>
       <use xlink:href="#DejaVuSans-2e" transform="translate(63.623047 0)"/>
       <use xlink:href="#DejaVuSans-31" transform="translate(95.410156 0)"/>
       <use xlink:href="#DejaVuSans-32" transform="translate(159.033203 0)"/>
      </g>
     </g>
    </g>
    <g id="ytick_4">
     <g id="line2d_10">
      <g>
       <use xlink:href="#m9098b616a2" x="54.92" y="133.260286" style="stroke: #000000; stroke-width: 0.8"/>
      </g>
     </g>
     <g id="text_11">
      <!-- 0.14 -->
      <g transform="translate(25.654375 137.059504) scale(0.1 -0.1)">
       <use xlink:href="#DejaVuSans-30"/>
       <use xlink:href="#DejaVuSans-2e" transform="translate(63.623047 0)"/>
       <use xlink:href="#DejaVuSans-31" transform="translate(95.410156 0)"/>
       <use xlink:href="#DejaVuSans-34" transform="translate(159.033203 0)"/>
      </g>
     </g>
    </g>
    <g id="ytick_5">
     <g id="line2d_11">
      <g>
       <use xlink:href="#m9098b616a2" x="54.92" y="87.995636" style="stroke: #000000; stroke-width: 0.8"/>
      </g>
     </g>
     <g id="text_12">
      <!-- 0.16 -->
      <g transform="translate(25.654375 91.794855) scale(0.1 -0.1)">
       <use xlink:href="#DejaVuSans-30"/>
       <use xlink:href="#DejaVuSans-2e" transform="translate(63.623047 0)"/>
       <use xlink:href="#DejaVuSans-31" transform="translate(95.410156 0)"/>
       <use xlink:href="#DejaVuSans-36" transform="translate(159.033203 0)"/>
      </g>
     </g>
    </g>
    <g id="ytick_6">
     <g id="line2d_12">
      <g>
       <use xlink:href="#m9098b616a2" x="54.92" y="42.730986" style="stroke: #000000; stroke-width: 0.8"/>
      </g>
     </g>
     <g id="text_13">
      <!-- 0.18 -->
      <g transform="translate(25.654375 46.530205) scale(0.1 -0.1)">
       <use xlink:href="#DejaVuSans-30"/>
       <use xlink:href="#DejaVuSans-2e" transform="translate(63.623047 0)"/>
       <use xlink:href="#DejaVuSans-31" transform="translate(95.410156 0)"/>
       <use xlink:href="#DejaVuSans-38" transform="translate(159.033203 0)"/>
      </g>
     </g>
    </g>
    <g id="text_14">
     <!-- Weight [kg] -->
     <g transform="translate(19.366719 188.736797) rotate(-90) scale(0.11 -0.11)">
      <defs>
       <path id="DejaVuSans-57" d="M 213 4666 
L 850 4666 
L 1831 722 
L 2809 4666 
L 3519 4666 
L 4500 722 
L 5478 4666 
L 6119 4666 
L 4947 0 
L 4153 0 
L 3169 4050 
L 2175 0 
L 1381 0 
L 213 4666 
z
" transform="scale(0.015625)"/>
       <path id="DejaVuSans-67" d="M 2906 1791 
Q 2906 2416 2648 2759 
Q 2391 3103 1925 3103 
Q 1463 3103 1205 2759 
Q 947 2416 947 1791 
Q 947 1169 1205 825 
Q 1463 481 1925 481 
Q 2391 481 2648 825 
Q 2906 1169 2906 1791 
z
M 3481 434 
Q 3481 -459 3084 -895 
Q 2688 -1331 1869 -1331 
Q 1566 -1331 1297 -1286 
Q 1028 -1241 775 -1147 
L 775 -588 
Q 1028 -725 1275 -790 
Q 1522 -856 1778 -856 
Q 2344 -856 2625 -561 
Q 2906 -266 2906 331 
L 2906 616 
Q 2728 306 2450 153 
Q 2172 0 1784 0 
Q 1141 0 747 490 
Q 353 981 353 1791 
Q 353 2603 747 3093 
Q 1141 3584 1784 3584 
Q 2172 3584 2450 3431 
Q 2728 3278 2906 2969 
L 2906 3500 
L 3481 3500 
L 3481 434 
z
" transform="scale(0.015625)"/>
       <path id="DejaVuSans-68" d="M 3513 2113 
L 3513 0 
L 2938 0 
L 2938 2094 
Q 2938 2591 2744 2837 
Q 2550 3084 2163 3084 
Q 1697 3084 1428 2787 
Q 1159 2491 1159 1978 
L 1159 0 
L 581 0 
L 581 4863 
L 1159 4863 
L 1159 2956 
Q 1366 3272 1645 3428 
Q 1925 3584 2291 3584 
Q 2894 3584 3203 3211 
Q 3513 2838 3513 2113 
z
" transform="scale(0.015625)"/>
       <path id="DejaVuSans-6b" d="M 581 4863 
L 1159 4863 
L 1159 1991 
L 2875 3500 
L 3609 3500 
L 1753 1863 
L 3688 0 
L 2938 0 
L 1159 1709 
L 1159 0 
L 581 0 
L 581 4863 
z
" transform="scale(0.015625)"/>
      </defs>
      <use xlink:href="#DejaVuSans-57"/>
      <use xlink:href="#DejaVuSans-65" transform="translate(93.001953 0)"/>
      <use xlink:href="#DejaVuSans-69" transform="translate(154.525391 0)"/>
      <use xlink:href="#DejaVuSans-67" transform="translate(182.308594 0)"/>
      <use xlink:href="#DejaVuSans-68" transform="translate(245.785156 0)"/>
      <use xlink:href="#DejaVuSans-74" transform="translate(309.164062 0)"/>
      <use xlink:href="#DejaVuSans-20" transform="translate(348.373047 0)"/>
      <use xlink:href="#DejaVuSans-5b" transform="translate(380.160156 0)"/>
      <use xlink:href="#DejaVuSans-6b" transform="translate(419.173828 0)"/>
      <use xlink:href="#DejaVuSans-67" transform="translate(477.083984 0)"/>
      <use xlink:href="#DejaVuSans-5d" transform="translate(540.560547 0)"/>
     </g>
    </g>
   </g>
   <g id="patch_3">
    <path d="M 54.92 302.92 
L 54.92 10.8 
" style="fill: none; stroke: #000000; stroke-width: 0.8; stroke-linejoin: miter; stroke-linecap: square"/>
   </g>
   <g id="patch_4">
    <path d="M 450 302.92 
L 450 10.8 
" style="fill: none; stroke: #000000; stroke-width: 0.8; stroke-linejoin: miter; stroke-linecap: square"/>
   </g>
   <g id="patch_5">
    <path d="M 54.92 302.92 
L 450 302.92 
" style="fill: none; stroke: #000000; stroke-width: 0.8; stroke-linejoin: miter; stroke-linecap: square"/>
   </g>
   <g id="patch_6">
    <path d="M 54.92 10.8 
L 450 10.8 
" style="fill: none; stroke: #000000; stroke-width: 0.8; stroke-linejoin: miter; stroke-linecap: square"/>
   </g>
  </g>
 </g>
 <defs>
  <clipPath id="p130dca9f68">
   <rect x="54.92" y="10.8" width="395.08" height="292.12"/>
  </clipPath>
 </defs>
</svg>
