<?xml version="1.0" encoding="utf-8" standalone="no"?>
<!DOCTYPE svg PUBLIC "-//W3C//DTD SVG 1.1//EN"
  "http://www.w3.org/Graphics/SVG/1.1/DTD/svg11.dtd">
<svg xmlns:xlink="http://www.w3.org/1999/xlink" width="460.8pt" height="345.6pt" viewBox="0 0 460.8 345.6" xmlns="http://www.w3.org/2000/svg" version="1.1">
 <metadata>
  <rdf:RDF xmlns:dc="http://purl.org/dc/elements/1.1/" xmlns:cc="http://creativecommons.org/ns#" xmlns:rdf="http://www.w3.org/1999/02/22-rdf-syntax-ns#">
   <cc:Work>
    <dc:type rdf:resource="http://purl.org/dc/dcmitype/StillImage"/>
    <dc:date>2025-04-23T12:20:24.961760</dc:date>
    <dc:format>image/svg+xml</dc:format>
    <dc:creator>
     <cc:Agent>
      <dc:title>Matplotlib v3.10.1, https://matplotlib.org/</dc:title>
     </cc:Agent>
    </dc:creator>
   </cc:Work>
  </rdf:RDF>
 </metadata>
 <defs>
  <style type="text/css">*{stroke-linejoin: round; stroke-linecap: butt}</style>
 </defs>
 <g id="figure_1">
  <g id="patch_1">
   <path d="M 0 345.6 
L 460.8 345.6 
L 460.8 0 
L 0 0 
z
" style="fill: #ffffff"/>
  </g>
  <g id="axes_1">
   <g id="patch_2">
    <path d="M 60.14 302.92 
L 448.917857 302.92 
L 448.917857 10.8 
L 60.14 10.8 
z
" style="fill: #ffffff"/>
   </g>
   <g id="PathCollection_1">
    <defs>
     <path id="mbd1962ec38" d="M 0 2.236068 
C 0.593012 2.236068 1.161816 2.000462 1.581139 1.581139 
C 2.000462 1.161816 2.236068 0.593012 2.236068 0 
C 2.236068 -0.593012 2.000462 -1.161816 1.581139 -1.581139 
C 1.161816 -2.000462 0.593012 -2.236068 0 -2.236068 
C -0.593012 -2.236068 -1.161816 -2.000462 -1.581139 -1.581139 
C -2.000462 -1.161816 -2.236068 -0.593012 -2.236068 0 
C -2.236068 0.593012 -2.000462 1.161816 -1.581139 1.581139 
C -1.161816 2.000462 -0.593012 2.236068 0 2.236068 
z
" style="stroke: #8b0000"/>
    </defs>
    <g clip-path="url(#pfb2abdfe23)">
     <use xlink:href="#mbd1962ec38" x="254.936035" y="157.155583" style="fill: #8b0000; stroke: #8b0000"/>
     <use xlink:href="#mbd1962ec38" x="253.244257" y="157.95775" style="fill: #8b0000; stroke: #8b0000"/>
     <use xlink:href="#mbd1962ec38" x="253.565327" y="157.479546" style="fill: #8b0000; stroke: #8b0000"/>
     <use xlink:href="#mbd1962ec38" x="255.732724" y="155.489362" style="fill: #8b0000; stroke: #8b0000"/>
     <use xlink:href="#mbd1962ec38" x="253.183897" y="158.336081" style="fill: #8b0000; stroke: #8b0000"/>
     <use xlink:href="#mbd1962ec38" x="256.177895" y="154.990766" style="fill: #8b0000; stroke: #8b0000"/>
     <use xlink:href="#mbd1962ec38" x="251.361698" y="159.938468" style="fill: #8b0000; stroke: #8b0000"/>
     <use xlink:href="#mbd1962ec38" x="255.675703" y="155.896301" style="fill: #8b0000; stroke: #8b0000"/>
     <use xlink:href="#mbd1962ec38" x="258.727388" y="154.462438" style="fill: #8b0000; stroke: #8b0000"/>
     <use xlink:href="#mbd1962ec38" x="255.567362" y="155.427041" style="fill: #8b0000; stroke: #8b0000"/>
     <use xlink:href="#mbd1962ec38" x="253.662558" y="157.600259" style="fill: #8b0000; stroke: #8b0000"/>
     <use xlink:href="#mbd1962ec38" x="253.537961" y="158.071758" style="fill: #8b0000; stroke: #8b0000"/>
     <use xlink:href="#mbd1962ec38" x="252.957632" y="157.664156" style="fill: #8b0000; stroke: #8b0000"/>
     <use xlink:href="#mbd1962ec38" x="250.985571" y="159.986378" style="fill: #8b0000; stroke: #8b0000"/>
     <use xlink:href="#mbd1962ec38" x="250.044777" y="159.761926" style="fill: #8b0000; stroke: #8b0000"/>
     <use xlink:href="#mbd1962ec38" x="252.477658" y="158.470317" style="fill: #8b0000; stroke: #8b0000"/>
     <use xlink:href="#mbd1962ec38" x="253.343268" y="157.917724" style="fill: #8b0000; stroke: #8b0000"/>
     <use xlink:href="#mbd1962ec38" x="254.826018" y="156.58547" style="fill: #8b0000; stroke: #8b0000"/>
     <use xlink:href="#mbd1962ec38" x="253.549295" y="157.373634" style="fill: #8b0000; stroke: #8b0000"/>
     <use xlink:href="#mbd1962ec38" x="255.703635" y="155.606916" style="fill: #8b0000; stroke: #8b0000"/>
     <use xlink:href="#mbd1962ec38" x="258.263214" y="153.859731" style="fill: #8b0000; stroke: #8b0000"/>
     <use xlink:href="#mbd1962ec38" x="255.204641" y="156.236241" style="fill: #8b0000; stroke: #8b0000"/>
     <use xlink:href="#mbd1962ec38" x="254.171652" y="156.916475" style="fill: #8b0000; stroke: #8b0000"/>
     <use xlink:href="#mbd1962ec38" x="256.364508" y="155.743473" style="fill: #8b0000; stroke: #8b0000"/>
     <use xlink:href="#mbd1962ec38" x="252.741794" y="158.677062" style="fill: #8b0000; stroke: #8b0000"/>
     <use xlink:href="#mbd1962ec38" x="254.128626" y="158.147302" style="fill: #8b0000; stroke: #8b0000"/>
     <use xlink:href="#mbd1962ec38" x="254.545504" y="156.083901" style="fill: #8b0000; stroke: #8b0000"/>
     <use xlink:href="#mbd1962ec38" x="253.734473" y="157.227562" style="fill: #8b0000; stroke: #8b0000"/>
     <use xlink:href="#mbd1962ec38" x="253.06364" y="157.238325" style="fill: #8b0000; stroke: #8b0000"/>
     <use xlink:href="#mbd1962ec38" x="256.129593" y="155.07519" style="fill: #8b0000; stroke: #8b0000"/>
     <use xlink:href="#mbd1962ec38" x="254.056262" y="157.067014" style="fill: #8b0000; stroke: #8b0000"/>
     <use xlink:href="#mbd1962ec38" x="252.687084" y="159.079258" style="fill: #8b0000; stroke: #8b0000"/>
     <use xlink:href="#mbd1962ec38" x="253.22604" y="158.195365" style="fill: #8b0000; stroke: #8b0000"/>
     <use xlink:href="#mbd1962ec38" x="256.660067" y="155.126608" style="fill: #8b0000; stroke: #8b0000"/>
     <use xlink:href="#mbd1962ec38" x="255.719746" y="155.737953" style="fill: #8b0000; stroke: #8b0000"/>
     <use xlink:href="#mbd1962ec38" x="253.829463" y="157.219213" style="fill: #8b0000; stroke: #8b0000"/>
     <use xlink:href="#mbd1962ec38" x="255.817343" y="155.21566" style="fill: #8b0000; stroke: #8b0000"/>
     <use xlink:href="#mbd1962ec38" x="257.559662" y="154.198689" style="fill: #8b0000; stroke: #8b0000"/>
     <use xlink:href="#mbd1962ec38" x="254.348704" y="156.151335" style="fill: #8b0000; stroke: #8b0000"/>
     <use xlink:href="#mbd1962ec38" x="255.344398" y="155.868383" style="fill: #8b0000; stroke: #8b0000"/>
     <use xlink:href="#mbd1962ec38" x="249.789806" y="160.375065" style="fill: #8b0000; stroke: #8b0000"/>
     <use xlink:href="#mbd1962ec38" x="256.15107" y="156.191515" style="fill: #8b0000; stroke: #8b0000"/>
     <use xlink:href="#mbd1962ec38" x="254.863901" y="157.085183" style="fill: #8b0000; stroke: #8b0000"/>
     <use xlink:href="#mbd1962ec38" x="251.005167" y="158.53474" style="fill: #8b0000; stroke: #8b0000"/>
     <use xlink:href="#mbd1962ec38" x="253.186019" y="157.815056" style="fill: #8b0000; stroke: #8b0000"/>
     <use xlink:href="#mbd1962ec38" x="255.158689" y="155.934576" style="fill: #8b0000; stroke: #8b0000"/>
     <use xlink:href="#mbd1962ec38" x="253.706774" y="158.501993" style="fill: #8b0000; stroke: #8b0000"/>
     <use xlink:href="#mbd1962ec38" x="255.482568" y="156.030061" style="fill: #8b0000; stroke: #8b0000"/>
     <use xlink:href="#mbd1962ec38" x="253.457773" y="157.041599" style="fill: #8b0000; stroke: #8b0000"/>
     <use xlink:href="#mbd1962ec38" x="253.268643" y="158.030186" style="fill: #8b0000; stroke: #8b0000"/>
     <use xlink:href="#mbd1962ec38" x="253.555685" y="158.10757" style="fill: #8b0000; stroke: #8b0000"/>
     <use xlink:href="#mbd1962ec38" x="255.277544" y="155.972749" style="fill: #8b0000; stroke: #8b0000"/>
     <use xlink:href="#mbd1962ec38" x="255.448005" y="156.368886" style="fill: #8b0000; stroke: #8b0000"/>
     <use xlink:href="#mbd1962ec38" x="254.861763" y="155.984839" style="fill: #8b0000; stroke: #8b0000"/>
     <use xlink:href="#mbd1962ec38" x="254.493213" y="155.940133" style="fill: #8b0000; stroke: #8b0000"/>
     <use xlink:href="#mbd1962ec38" x="255.281999" y="156.795326" style="fill: #8b0000; stroke: #8b0000"/>
     <use xlink:href="#mbd1962ec38" x="256.706493" y="155.640759" style="fill: #8b0000; stroke: #8b0000"/>
     <use xlink:href="#mbd1962ec38" x="250.406168" y="158.985249" style="fill: #8b0000; stroke: #8b0000"/>
     <use xlink:href="#mbd1962ec38" x="254.779076" y="156.215177" style="fill: #8b0000; stroke: #8b0000"/>
     <use xlink:href="#mbd1962ec38" x="250.71875" y="159.391224" style="fill: #8b0000; stroke: #8b0000"/>
     <use xlink:href="#mbd1962ec38" x="253.757913" y="157.494617" style="fill: #8b0000; stroke: #8b0000"/>
     <use xlink:href="#mbd1962ec38" x="255.333834" y="157.026456" style="fill: #8b0000; stroke: #8b0000"/>
     <use xlink:href="#mbd1962ec38" x="255.143622" y="156.409649" style="fill: #8b0000; stroke: #8b0000"/>
     <use xlink:href="#mbd1962ec38" x="254.968055" y="156.850696" style="fill: #8b0000; stroke: #8b0000"/>
     <use xlink:href="#mbd1962ec38" x="252.63656" y="158.07505" style="fill: #8b0000; stroke: #8b0000"/>
     <use xlink:href="#mbd1962ec38" x="257.169742" y="155.412806" style="fill: #8b0000; stroke: #8b0000"/>
     <use xlink:href="#mbd1962ec38" x="256.099977" y="156.112821" style="fill: #8b0000; stroke: #8b0000"/>
     <use xlink:href="#mbd1962ec38" x="255.001962" y="156.49141" style="fill: #8b0000; stroke: #8b0000"/>
     <use xlink:href="#mbd1962ec38" x="252.673232" y="157.815463" style="fill: #8b0000; stroke: #8b0000"/>
     <use xlink:href="#mbd1962ec38" x="256.253494" y="156.707221" style="fill: #8b0000; stroke: #8b0000"/>
     <use xlink:href="#mbd1962ec38" x="255.877288" y="156.498553" style="fill: #8b0000; stroke: #8b0000"/>
     <use xlink:href="#mbd1962ec38" x="251.314917" y="158.780501" style="fill: #8b0000; stroke: #8b0000"/>
     <use xlink:href="#mbd1962ec38" x="253.991263" y="156.979502" style="fill: #8b0000; stroke: #8b0000"/>
     <use xlink:href="#mbd1962ec38" x="253.963141" y="157.684071" style="fill: #8b0000; stroke: #8b0000"/>
     <use xlink:href="#mbd1962ec38" x="254.950827" y="156.247781" style="fill: #8b0000; stroke: #8b0000"/>
     <use xlink:href="#mbd1962ec38" x="255.654611" y="155.394515" style="fill: #8b0000; stroke: #8b0000"/>
     <use xlink:href="#mbd1962ec38" x="255.711668" y="155.510904" style="fill: #8b0000; stroke: #8b0000"/>
     <use xlink:href="#mbd1962ec38" x="253.594375" y="156.965404" style="fill: #8b0000; stroke: #8b0000"/>
     <use xlink:href="#mbd1962ec38" x="254.474549" y="156.341665" style="fill: #8b0000; stroke: #8b0000"/>
     <use xlink:href="#mbd1962ec38" x="251.606954" y="159.692367" style="fill: #8b0000; stroke: #8b0000"/>
     <use xlink:href="#mbd1962ec38" x="248.848326" y="161.141916" style="fill: #8b0000; stroke: #8b0000"/>
     <use xlink:href="#mbd1962ec38" x="256.056655" y="156.392605" style="fill: #8b0000; stroke: #8b0000"/>
     <use xlink:href="#mbd1962ec38" x="253.674846" y="157.201926" style="fill: #8b0000; stroke: #8b0000"/>
     <use xlink:href="#mbd1962ec38" x="255.90975" y="155.644538" style="fill: #8b0000; stroke: #8b0000"/>
     <use xlink:href="#mbd1962ec38" x="257.445261" y="155.300098" style="fill: #8b0000; stroke: #8b0000"/>
     <use xlink:href="#mbd1962ec38" x="251.657608" y="159.075216" style="fill: #8b0000; stroke: #8b0000"/>
     <use xlink:href="#mbd1962ec38" x="255.637253" y="155.714952" style="fill: #8b0000; stroke: #8b0000"/>
     <use xlink:href="#mbd1962ec38" x="253.961476" y="157.374193" style="fill: #8b0000; stroke: #8b0000"/>
     <use xlink:href="#mbd1962ec38" x="256.423856" y="156.134387" style="fill: #8b0000; stroke: #8b0000"/>
     <use xlink:href="#mbd1962ec38" x="252.288938" y="158.012904" style="fill: #8b0000; stroke: #8b0000"/>
     <use xlink:href="#mbd1962ec38" x="259.01025" y="153.823204" style="fill: #8b0000; stroke: #8b0000"/>
     <use xlink:href="#mbd1962ec38" x="252.962216" y="157.83122" style="fill: #8b0000; stroke: #8b0000"/>
     <use xlink:href="#mbd1962ec38" x="254.072481" y="157.507738" style="fill: #8b0000; stroke: #8b0000"/>
     <use xlink:href="#mbd1962ec38" x="254.55673" y="156.495095" style="fill: #8b0000; stroke: #8b0000"/>
     <use xlink:href="#mbd1962ec38" x="256.614317" y="155.526071" style="fill: #8b0000; stroke: #8b0000"/>
     <use xlink:href="#mbd1962ec38" x="255.391442" y="156.61171" style="fill: #8b0000; stroke: #8b0000"/>
     <use xlink:href="#mbd1962ec38" x="253.640627" y="157.836256" style="fill: #8b0000; stroke: #8b0000"/>
     <use xlink:href="#mbd1962ec38" x="254.676959" y="157.461033" style="fill: #8b0000; stroke: #8b0000"/>
     <use xlink:href="#mbd1962ec38" x="254.224617" y="157.886713" style="fill: #8b0000; stroke: #8b0000"/>
     <use xlink:href="#mbd1962ec38" x="251.15401" y="158.033446" style="fill: #8b0000; stroke: #8b0000"/>
     <use xlink:href="#mbd1962ec38" x="253.9383" y="157.115079" style="fill: #8b0000; stroke: #8b0000"/>
     <use xlink:href="#mbd1962ec38" x="254.231128" y="157.019423" style="fill: #8b0000; stroke: #8b0000"/>
     <use xlink:href="#mbd1962ec38" x="252.409409" y="157.481049" style="fill: #8b0000; stroke: #8b0000"/>
     <use xlink:href="#mbd1962ec38" x="253.023904" y="158.464537" style="fill: #8b0000; stroke: #8b0000"/>
     <use xlink:href="#mbd1962ec38" x="253.096482" y="158.295555" style="fill: #8b0000; stroke: #8b0000"/>
     <use xlink:href="#mbd1962ec38" x="253.132771" y="157.523023" style="fill: #8b0000; stroke: #8b0000"/>
     <use xlink:href="#mbd1962ec38" x="256.311015" y="155.837156" style="fill: #8b0000; stroke: #8b0000"/>
     <use xlink:href="#mbd1962ec38" x="253.399486" y="157.500961" style="fill: #8b0000; stroke: #8b0000"/>
     <use xlink:href="#mbd1962ec38" x="254.461486" y="155.907887" style="fill: #8b0000; stroke: #8b0000"/>
     <use xlink:href="#mbd1962ec38" x="257.35621" y="155.471059" style="fill: #8b0000; stroke: #8b0000"/>
     <use xlink:href="#mbd1962ec38" x="255.010523" y="156.311698" style="fill: #8b0000; stroke: #8b0000"/>
     <use xlink:href="#mbd1962ec38" x="256.542162" y="156.005191" style="fill: #8b0000; stroke: #8b0000"/>
     <use xlink:href="#mbd1962ec38" x="256.510513" y="156.699175" style="fill: #8b0000; stroke: #8b0000"/>
     <use xlink:href="#mbd1962ec38" x="255.551424" y="155.059151" style="fill: #8b0000; stroke: #8b0000"/>
     <use xlink:href="#mbd1962ec38" x="256.450937" y="155.835737" style="fill: #8b0000; stroke: #8b0000"/>
     <use xlink:href="#mbd1962ec38" x="250.750768" y="160.375234" style="fill: #8b0000; stroke: #8b0000"/>
     <use xlink:href="#mbd1962ec38" x="257.733928" y="155.327429" style="fill: #8b0000; stroke: #8b0000"/>
     <use xlink:href="#mbd1962ec38" x="257.263346" y="153.981994" style="fill: #8b0000; stroke: #8b0000"/>
     <use xlink:href="#mbd1962ec38" x="252.067869" y="157.78323" style="fill: #8b0000; stroke: #8b0000"/>
     <use xlink:href="#mbd1962ec38" x="254.283024" y="157.38757" style="fill: #8b0000; stroke: #8b0000"/>
     <use xlink:href="#mbd1962ec38" x="253.557956" y="157.016222" style="fill: #8b0000; stroke: #8b0000"/>
     <use xlink:href="#mbd1962ec38" x="256.186826" y="156.046151" style="fill: #8b0000; stroke: #8b0000"/>
     <use xlink:href="#mbd1962ec38" x="255.510884" y="156.585614" style="fill: #8b0000; stroke: #8b0000"/>
     <use xlink:href="#mbd1962ec38" x="255.467352" y="156.126414" style="fill: #8b0000; stroke: #8b0000"/>
     <use xlink:href="#mbd1962ec38" x="251.741676" y="159.171631" style="fill: #8b0000; stroke: #8b0000"/>
     <use xlink:href="#mbd1962ec38" x="257.071605" y="154.975999" style="fill: #8b0000; stroke: #8b0000"/>
     <use xlink:href="#mbd1962ec38" x="256.201186" y="155.882274" style="fill: #8b0000; stroke: #8b0000"/>
     <use xlink:href="#mbd1962ec38" x="255.913616" y="155.947957" style="fill: #8b0000; stroke: #8b0000"/>
     <use xlink:href="#mbd1962ec38" x="253.685545" y="158.228787" style="fill: #8b0000; stroke: #8b0000"/>
     <use xlink:href="#mbd1962ec38" x="254.419747" y="157.044053" style="fill: #8b0000; stroke: #8b0000"/>
     <use xlink:href="#mbd1962ec38" x="255.020028" y="155.961369" style="fill: #8b0000; stroke: #8b0000"/>
     <use xlink:href="#mbd1962ec38" x="252.516746" y="158.733321" style="fill: #8b0000; stroke: #8b0000"/>
     <use xlink:href="#mbd1962ec38" x="255.002236" y="156.451594" style="fill: #8b0000; stroke: #8b0000"/>
     <use xlink:href="#mbd1962ec38" x="255.743014" y="155.642288" style="fill: #8b0000; stroke: #8b0000"/>
     <use xlink:href="#mbd1962ec38" x="252.751031" y="158.088416" style="fill: #8b0000; stroke: #8b0000"/>
     <use xlink:href="#mbd1962ec38" x="255.290228" y="156.468" style="fill: #8b0000; stroke: #8b0000"/>
     <use xlink:href="#mbd1962ec38" x="251.489516" y="158.616542" style="fill: #8b0000; stroke: #8b0000"/>
     <use xlink:href="#mbd1962ec38" x="254.087951" y="157.450856" style="fill: #8b0000; stroke: #8b0000"/>
     <use xlink:href="#mbd1962ec38" x="254.418166" y="156.493406" style="fill: #8b0000; stroke: #8b0000"/>
     <use xlink:href="#mbd1962ec38" x="252.596688" y="156.274354" style="fill: #8b0000; stroke: #8b0000"/>
     <use xlink:href="#mbd1962ec38" x="253.837519" y="157.004895" style="fill: #8b0000; stroke: #8b0000"/>
     <use xlink:href="#mbd1962ec38" x="255.147325" y="156.552644" style="fill: #8b0000; stroke: #8b0000"/>
     <use xlink:href="#mbd1962ec38" x="255.276093" y="156.664898" style="fill: #8b0000; stroke: #8b0000"/>
     <use xlink:href="#mbd1962ec38" x="254.367413" y="157.095191" style="fill: #8b0000; stroke: #8b0000"/>
     <use xlink:href="#mbd1962ec38" x="253.717252" y="157.109644" style="fill: #8b0000; stroke: #8b0000"/>
     <use xlink:href="#mbd1962ec38" x="253.666053" y="157.712005" style="fill: #8b0000; stroke: #8b0000"/>
     <use xlink:href="#mbd1962ec38" x="254.078978" y="157.956193" style="fill: #8b0000; stroke: #8b0000"/>
     <use xlink:href="#mbd1962ec38" x="254.004139" y="156.890217" style="fill: #8b0000; stroke: #8b0000"/>
     <use xlink:href="#mbd1962ec38" x="253.984376" y="157.558236" style="fill: #8b0000; stroke: #8b0000"/>
     <use xlink:href="#mbd1962ec38" x="256.211271" y="156.229788" style="fill: #8b0000; stroke: #8b0000"/>
     <use xlink:href="#mbd1962ec38" x="253.6009" y="157.363846" style="fill: #8b0000; stroke: #8b0000"/>
     <use xlink:href="#mbd1962ec38" x="253.826397" y="156.793497" style="fill: #8b0000; stroke: #8b0000"/>
     <use xlink:href="#mbd1962ec38" x="251.172893" y="159.517118" style="fill: #8b0000; stroke: #8b0000"/>
     <use xlink:href="#mbd1962ec38" x="257.441194" y="155.02662" style="fill: #8b0000; stroke: #8b0000"/>
     <use xlink:href="#mbd1962ec38" x="255.474842" y="156.177343" style="fill: #8b0000; stroke: #8b0000"/>
     <use xlink:href="#mbd1962ec38" x="252.445236" y="157.847935" style="fill: #8b0000; stroke: #8b0000"/>
     <use xlink:href="#mbd1962ec38" x="255.380017" y="156.725381" style="fill: #8b0000; stroke: #8b0000"/>
     <use xlink:href="#mbd1962ec38" x="257.703921" y="154.605813" style="fill: #8b0000; stroke: #8b0000"/>
     <use xlink:href="#mbd1962ec38" x="255.016686" y="155.849929" style="fill: #8b0000; stroke: #8b0000"/>
     <use xlink:href="#mbd1962ec38" x="254.367974" y="157.165612" style="fill: #8b0000; stroke: #8b0000"/>
     <use xlink:href="#mbd1962ec38" x="254.378532" y="156.385649" style="fill: #8b0000; stroke: #8b0000"/>
     <use xlink:href="#mbd1962ec38" x="258.897398" y="153.679193" style="fill: #8b0000; stroke: #8b0000"/>
     <use xlink:href="#mbd1962ec38" x="255.476566" y="155.280333" style="fill: #8b0000; stroke: #8b0000"/>
     <use xlink:href="#mbd1962ec38" x="252.713687" y="158.346606" style="fill: #8b0000; stroke: #8b0000"/>
     <use xlink:href="#mbd1962ec38" x="254.853932" y="156.71721" style="fill: #8b0000; stroke: #8b0000"/>
     <use xlink:href="#mbd1962ec38" x="256.822805" y="154.793891" style="fill: #8b0000; stroke: #8b0000"/>
     <use xlink:href="#mbd1962ec38" x="256.096517" y="155.390507" style="fill: #8b0000; stroke: #8b0000"/>
     <use xlink:href="#mbd1962ec38" x="255.532838" y="155.804975" style="fill: #8b0000; stroke: #8b0000"/>
     <use xlink:href="#mbd1962ec38" x="255.871468" y="155.725818" style="fill: #8b0000; stroke: #8b0000"/>
     <use xlink:href="#mbd1962ec38" x="257.63983" y="154.751447" style="fill: #8b0000; stroke: #8b0000"/>
     <use xlink:href="#mbd1962ec38" x="254.777963" y="157.248343" style="fill: #8b0000; stroke: #8b0000"/>
     <use xlink:href="#mbd1962ec38" x="256.127258" y="155.575357" style="fill: #8b0000; stroke: #8b0000"/>
     <use xlink:href="#mbd1962ec38" x="256.012996" y="156.580722" style="fill: #8b0000; stroke: #8b0000"/>
     <use xlink:href="#mbd1962ec38" x="252.136897" y="158.832988" style="fill: #8b0000; stroke: #8b0000"/>
     <use xlink:href="#mbd1962ec38" x="256.520682" y="154.838198" style="fill: #8b0000; stroke: #8b0000"/>
     <use xlink:href="#mbd1962ec38" x="252.831982" y="157.98184" style="fill: #8b0000; stroke: #8b0000"/>
     <use xlink:href="#mbd1962ec38" x="254.232911" y="156.585954" style="fill: #8b0000; stroke: #8b0000"/>
     <use xlink:href="#mbd1962ec38" x="250.819701" y="159.797967" style="fill: #8b0000; stroke: #8b0000"/>
     <use xlink:href="#mbd1962ec38" x="251.879279" y="159.239359" style="fill: #8b0000; stroke: #8b0000"/>
     <use xlink:href="#mbd1962ec38" x="254.83063" y="157.038917" style="fill: #8b0000; stroke: #8b0000"/>
     <use xlink:href="#mbd1962ec38" x="252.119313" y="158.518238" style="fill: #8b0000; stroke: #8b0000"/>
     <use xlink:href="#mbd1962ec38" x="255.800794" y="155.430679" style="fill: #8b0000; stroke: #8b0000"/>
     <use xlink:href="#mbd1962ec38" x="255.867254" y="155.066112" style="fill: #8b0000; stroke: #8b0000"/>
     <use xlink:href="#mbd1962ec38" x="256.743778" y="155.770593" style="fill: #8b0000; stroke: #8b0000"/>
     <use xlink:href="#mbd1962ec38" x="255.085767" y="157.126374" style="fill: #8b0000; stroke: #8b0000"/>
     <use xlink:href="#mbd1962ec38" x="253.708398" y="157.482242" style="fill: #8b0000; stroke: #8b0000"/>
     <use xlink:href="#mbd1962ec38" x="256.760174" y="155.105538" style="fill: #8b0000; stroke: #8b0000"/>
     <use xlink:href="#mbd1962ec38" x="256.039952" y="155.796047" style="fill: #8b0000; stroke: #8b0000"/>
     <use xlink:href="#mbd1962ec38" x="253.988908" y="157.891434" style="fill: #8b0000; stroke: #8b0000"/>
     <use xlink:href="#mbd1962ec38" x="254.646484" y="156.956275" style="fill: #8b0000; stroke: #8b0000"/>
     <use xlink:href="#mbd1962ec38" x="255.378062" y="155.83052" style="fill: #8b0000; stroke: #8b0000"/>
     <use xlink:href="#mbd1962ec38" x="255.280626" y="156.292469" style="fill: #8b0000; stroke: #8b0000"/>
     <use xlink:href="#mbd1962ec38" x="257.727007" y="154.01557" style="fill: #8b0000; stroke: #8b0000"/>
     <use xlink:href="#mbd1962ec38" x="253.259791" y="158.0645" style="fill: #8b0000; stroke: #8b0000"/>
     <use xlink:href="#mbd1962ec38" x="255.476854" y="156.942883" style="fill: #8b0000; stroke: #8b0000"/>
     <use xlink:href="#mbd1962ec38" x="256.380367" y="156.078629" style="fill: #8b0000; stroke: #8b0000"/>
     <use xlink:href="#mbd1962ec38" x="257.402412" y="155.233382" style="fill: #8b0000; stroke: #8b0000"/>
     <use xlink:href="#mbd1962ec38" x="256.14907" y="155.70315" style="fill: #8b0000; stroke: #8b0000"/>
     <use xlink:href="#mbd1962ec38" x="252.376261" y="158.923631" style="fill: #8b0000; stroke: #8b0000"/>
     <use xlink:href="#mbd1962ec38" x="251.381636" y="159.067096" style="fill: #8b0000; stroke: #8b0000"/>
    </g>
   </g>
   <g id="matplotlib.axis_1">
    <g id="xtick_1">
     <g id="line2d_1">
      <defs>
       <path id="m49191894fb" d="M 0 0 
L 0 3.5 
" style="stroke: #000000; stroke-width: 0.8"/>
      </defs>
      <g>
       <use xlink:href="#m49191894fb" x="69.396616" y="302.92" style="stroke: #000000; stroke-width: 0.8"/>
      </g>
     </g>
     <g id="text_1">
      <!-- −100 -->
      <g transform="translate(55.663022 317.518437) scale(0.1 -0.1)">
       <defs>
        <path id="DejaVuSans-2212" d="M 678 2272 
L 4684 2272 
L 4684 1741 
L 678 1741 
L 678 2272 
z
" transform="scale(0.015625)"/>
        <path id="DejaVuSans-31" d="M 794 531 
L 1825 531 
L 1825 4091 
L 703 3866 
L 703 4441 
L 1819 4666 
L 2450 4666 
L 2450 531 
L 3481 531 
L 3481 0 
L 794 0 
L 794 531 
z
" transform="scale(0.015625)"/>
        <path id="DejaVuSans-30" d="M 2034 4250 
Q 1547 4250 1301 3770 
Q 1056 3291 1056 2328 
Q 1056 1369 1301 889 
Q 1547 409 2034 409 
Q 2525 409 2770 889 
Q 3016 1369 3016 2328 
Q 3016 3291 2770 3770 
Q 2525 4250 2034 4250 
z
M 2034 4750 
Q 2819 4750 3233 4129 
Q 3647 3509 3647 2328 
Q 3647 1150 3233 529 
Q 2819 -91 2034 -91 
Q 1250 -91 836 529 
Q 422 1150 422 2328 
Q 422 3509 836 4129 
Q 1250 4750 2034 4750 
z
" transform="scale(0.015625)"/>
       </defs>
       <use xlink:href="#DejaVuSans-2212"/>
       <use xlink:href="#DejaVuSans-31" transform="translate(83.789062 0)"/>
       <use xlink:href="#DejaVuSans-30" transform="translate(147.412109 0)"/>
       <use xlink:href="#DejaVuSans-30" transform="translate(211.035156 0)"/>
      </g>
     </g>
    </g>
    <g id="xtick_2">
     <g id="line2d_2">
      <g>
       <use xlink:href="#m49191894fb" x="115.679694" y="302.92" style="stroke: #000000; stroke-width: 0.8"/>
      </g>
     </g>
     <g id="text_2">
      <!-- −75 -->
      <g transform="translate(105.12735 317.518437) scale(0.1 -0.1)">
       <defs>
        <path id="DejaVuSans-37" d="M 525 4666 
L 3525 4666 
L 3525 4397 
L 1831 0 
L 1172 0 
L 2766 4134 
L 525 4134 
L 525 4666 
z
" transform="scale(0.015625)"/>
        <path id="DejaVuSans-35" d="M 691 4666 
L 3169 4666 
L 3169 4134 
L 1269 4134 
L 1269 2991 
Q 1406 3038 1543 3061 
Q 1681 3084 1819 3084 
Q 2600 3084 3056 2656 
Q 3513 2228 3513 1497 
Q 3513 744 3044 326 
Q 2575 -91 1722 -91 
Q 1428 -91 1123 -41 
Q 819 9 494 109 
L 494 744 
Q 775 591 1075 516 
Q 1375 441 1709 441 
Q 2250 441 2565 725 
Q 2881 1009 2881 1497 
Q 2881 1984 2565 2268 
Q 2250 2553 1709 2553 
Q 1456 2553 1204 2497 
Q 953 2441 691 2322 
L 691 4666 
z
" transform="scale(0.015625)"/>
       </defs>
       <use xlink:href="#DejaVuSans-2212"/>
       <use xlink:href="#DejaVuSans-37" transform="translate(83.789062 0)"/>
       <use xlink:href="#DejaVuSans-35" transform="translate(147.412109 0)"/>
      </g>
     </g>
    </g>
    <g id="xtick_3">
     <g id="line2d_3">
      <g>
       <use xlink:href="#m49191894fb" x="161.962772" y="302.92" style="stroke: #000000; stroke-width: 0.8"/>
      </g>
     </g>
     <g id="text_3">
      <!-- −50 -->
      <g transform="translate(151.410428 317.518437) scale(0.1 -0.1)">
       <use xlink:href="#DejaVuSans-2212"/>
       <use xlink:href="#DejaVuSans-35" transform="translate(83.789062 0)"/>
       <use xlink:href="#DejaVuSans-30" transform="translate(147.412109 0)"/>
      </g>
     </g>
    </g>
    <g id="xtick_4">
     <g id="line2d_4">
      <g>
       <use xlink:href="#m49191894fb" x="208.24585" y="302.92" style="stroke: #000000; stroke-width: 0.8"/>
      </g>
     </g>
     <g id="text_4">
      <!-- −25 -->
      <g transform="translate(197.693507 317.518437) scale(0.1 -0.1)">
       <defs>
        <path id="DejaVuSans-32" d="M 1228 531 
L 3431 531 
L 3431 0 
L 469 0 
L 469 531 
Q 828 903 1448 1529 
Q 2069 2156 2228 2338 
Q 2531 2678 2651 2914 
Q 2772 3150 2772 3378 
Q 2772 3750 2511 3984 
Q 2250 4219 1831 4219 
Q 1534 4219 1204 4116 
Q 875 4013 500 3803 
L 500 4441 
Q 881 4594 1212 4672 
Q 1544 4750 1819 4750 
Q 2544 4750 2975 4387 
Q 3406 4025 3406 3419 
Q 3406 3131 3298 2873 
Q 3191 2616 2906 2266 
Q 2828 2175 2409 1742 
Q 1991 1309 1228 531 
z
" transform="scale(0.015625)"/>
       </defs>
       <use xlink:href="#DejaVuSans-2212"/>
       <use xlink:href="#DejaVuSans-32" transform="translate(83.789062 0)"/>
       <use xlink:href="#DejaVuSans-35" transform="translate(147.412109 0)"/>
      </g>
     </g>
    </g>
    <g id="xtick_5">
     <g id="line2d_5">
      <g>
       <use xlink:href="#m49191894fb" x="254.528929" y="302.92" style="stroke: #000000; stroke-width: 0.8"/>
      </g>
     </g>
     <g id="text_5">
      <!-- 0 -->
      <g transform="translate(251.347679 317.518437) scale(0.1 -0.1)">
       <use xlink:href="#DejaVuSans-30"/>
      </g>
     </g>
    </g>
    <g id="xtick_6">
     <g id="line2d_6">
      <g>
       <use xlink:href="#m49191894fb" x="300.812007" y="302.92" style="stroke: #000000; stroke-width: 0.8"/>
      </g>
     </g>
     <g id="text_6">
      <!-- 25 -->
      <g transform="translate(294.449507 317.518437) scale(0.1 -0.1)">
       <use xlink:href="#DejaVuSans-32"/>
       <use xlink:href="#DejaVuSans-35" transform="translate(63.623047 0)"/>
      </g>
     </g>
    </g>
    <g id="xtick_7">
     <g id="line2d_7">
      <g>
       <use xlink:href="#m49191894fb" x="347.095085" y="302.92" style="stroke: #000000; stroke-width: 0.8"/>
      </g>
     </g>
     <g id="text_7">
      <!-- 50 -->
      <g transform="translate(340.732585 317.518437) scale(0.1 -0.1)">
       <use xlink:href="#DejaVuSans-35"/>
       <use xlink:href="#DejaVuSans-30" transform="translate(63.623047 0)"/>
      </g>
     </g>
    </g>
    <g id="xtick_8">
     <g id="line2d_8">
      <g>
       <use xlink:href="#m49191894fb" x="393.378163" y="302.92" style="stroke: #000000; stroke-width: 0.8"/>
      </g>
     </g>
     <g id="text_8">
      <!-- 75 -->
      <g transform="translate(387.015663 317.518437) scale(0.1 -0.1)">
       <use xlink:href="#DejaVuSans-37"/>
       <use xlink:href="#DejaVuSans-35" transform="translate(63.623047 0)"/>
      </g>
     </g>
    </g>
    <g id="xtick_9">
     <g id="line2d_9">
      <g>
       <use xlink:href="#m49191894fb" x="439.661241" y="302.92" style="stroke: #000000; stroke-width: 0.8"/>
      </g>
     </g>
     <g id="text_9">
      <!-- 100 -->
      <g transform="translate(430.117491 317.518437) scale(0.1 -0.1)">
       <use xlink:href="#DejaVuSans-31"/>
       <use xlink:href="#DejaVuSans-30" transform="translate(63.623047 0)"/>
       <use xlink:href="#DejaVuSans-30" transform="translate(127.246094 0)"/>
      </g>
     </g>
    </g>
    <g id="text_10">
     <!-- Diameter -->
     <g transform="translate(228.852522 331.956406) scale(0.11 -0.11)">
      <defs>
       <path id="DejaVuSans-44" d="M 1259 4147 
L 1259 519 
L 2022 519 
Q 2988 519 3436 956 
Q 3884 1394 3884 2338 
Q 3884 3275 3436 3711 
Q 2988 4147 2022 4147 
L 1259 4147 
z
M 628 4666 
L 1925 4666 
Q 3281 4666 3915 4102 
Q 4550 3538 4550 2338 
Q 4550 1131 3912 565 
Q 3275 0 1925 0 
L 628 0 
L 628 4666 
z
" transform="scale(0.015625)"/>
       <path id="DejaVuSans-69" d="M 603 3500 
L 1178 3500 
L 1178 0 
L 603 0 
L 603 3500 
z
M 603 4863 
L 1178 4863 
L 1178 4134 
L 603 4134 
L 603 4863 
z
" transform="scale(0.015625)"/>
       <path id="DejaVuSans-61" d="M 2194 1759 
Q 1497 1759 1228 1600 
Q 959 1441 959 1056 
Q 959 750 1161 570 
Q 1363 391 1709 391 
Q 2188 391 2477 730 
Q 2766 1069 2766 1631 
L 2766 1759 
L 2194 1759 
z
M 3341 1997 
L 3341 0 
L 2766 0 
L 2766 531 
Q 2569 213 2275 61 
Q 1981 -91 1556 -91 
Q 1019 -91 701 211 
Q 384 513 384 1019 
Q 384 1609 779 1909 
Q 1175 2209 1959 2209 
L 2766 2209 
L 2766 2266 
Q 2766 2663 2505 2880 
Q 2244 3097 1772 3097 
Q 1472 3097 1187 3025 
Q 903 2953 641 2809 
L 641 3341 
Q 956 3463 1253 3523 
Q 1550 3584 1831 3584 
Q 2591 3584 2966 3190 
Q 3341 2797 3341 1997 
z
" transform="scale(0.015625)"/>
       <path id="DejaVuSans-6d" d="M 3328 2828 
Q 3544 3216 3844 3400 
Q 4144 3584 4550 3584 
Q 5097 3584 5394 3201 
Q 5691 2819 5691 2113 
L 5691 0 
L 5113 0 
L 5113 2094 
Q 5113 2597 4934 2840 
Q 4756 3084 4391 3084 
Q 3944 3084 3684 2787 
Q 3425 2491 3425 1978 
L 3425 0 
L 2847 0 
L 2847 2094 
Q 2847 2600 2669 2842 
Q 2491 3084 2119 3084 
Q 1678 3084 1418 2786 
Q 1159 2488 1159 1978 
L 1159 0 
L 581 0 
L 581 3500 
L 1159 3500 
L 1159 2956 
Q 1356 3278 1631 3431 
Q 1906 3584 2284 3584 
Q 2666 3584 2933 3390 
Q 3200 3197 3328 2828 
z
" transform="scale(0.015625)"/>
       <path id="DejaVuSans-65" d="M 3597 1894 
L 3597 1613 
L 953 1613 
Q 991 1019 1311 708 
Q 1631 397 2203 397 
Q 2534 397 2845 478 
Q 3156 559 3463 722 
L 3463 178 
Q 3153 47 2828 -22 
Q 2503 -91 2169 -91 
Q 1331 -91 842 396 
Q 353 884 353 1716 
Q 353 2575 817 3079 
Q 1281 3584 2069 3584 
Q 2775 3584 3186 3129 
Q 3597 2675 3597 1894 
z
M 3022 2063 
Q 3016 2534 2758 2815 
Q 2500 3097 2075 3097 
Q 1594 3097 1305 2825 
Q 1016 2553 972 2059 
L 3022 2063 
z
" transform="scale(0.015625)"/>
       <path id="DejaVuSans-74" d="M 1172 4494 
L 1172 3500 
L 2356 3500 
L 2356 3053 
L 1172 3053 
L 1172 1153 
Q 1172 725 1289 603 
Q 1406 481 1766 481 
L 2356 481 
L 2356 0 
L 1766 0 
Q 1100 0 847 248 
Q 594 497 594 1153 
L 594 3053 
L 172 3053 
L 172 3500 
L 594 3500 
L 594 4494 
L 1172 4494 
z
" transform="scale(0.015625)"/>
       <path id="DejaVuSans-72" d="M 2631 2963 
Q 2534 3019 2420 3045 
Q 2306 3072 2169 3072 
Q 1681 3072 1420 2755 
Q 1159 2438 1159 1844 
L 1159 0 
L 581 0 
L 581 3500 
L 1159 3500 
L 1159 2956 
Q 1341 3275 1631 3429 
Q 1922 3584 2338 3584 
Q 2397 3584 2469 3576 
Q 2541 3569 2628 3553 
L 2631 2963 
z
" transform="scale(0.015625)"/>
      </defs>
      <use xlink:href="#DejaVuSans-44"/>
      <use xlink:href="#DejaVuSans-69" transform="translate(77.001953 0)"/>
      <use xlink:href="#DejaVuSans-61" transform="translate(104.785156 0)"/>
      <use xlink:href="#DejaVuSans-6d" transform="translate(166.064453 0)"/>
      <use xlink:href="#DejaVuSans-65" transform="translate(263.476562 0)"/>
      <use xlink:href="#DejaVuSans-74" transform="translate(325 0)"/>
      <use xlink:href="#DejaVuSans-65" transform="translate(364.208984 0)"/>
      <use xlink:href="#DejaVuSans-72" transform="translate(425.732422 0)"/>
     </g>
    </g>
   </g>
   <g id="matplotlib.axis_2">
    <g id="ytick_1">
     <g id="line2d_10">
      <defs>
       <path id="mbf40ef8f03" d="M 0 0 
L -3.5 0 
" style="stroke: #000000; stroke-width: 0.8"/>
      </defs>
      <g>
       <use xlink:href="#mbf40ef8f03" x="60.14" y="295.964762" style="stroke: #000000; stroke-width: 0.8"/>
      </g>
     </g>
     <g id="text_11">
      <!-- −100 -->
      <g transform="translate(25.672813 299.763981) scale(0.1 -0.1)">
       <use xlink:href="#DejaVuSans-2212"/>
       <use xlink:href="#DejaVuSans-31" transform="translate(83.789062 0)"/>
       <use xlink:href="#DejaVuSans-30" transform="translate(147.412109 0)"/>
       <use xlink:href="#DejaVuSans-30" transform="translate(211.035156 0)"/>
      </g>
     </g>
    </g>
    <g id="ytick_2">
     <g id="line2d_11">
      <g>
       <use xlink:href="#mbf40ef8f03" x="60.14" y="261.188571" style="stroke: #000000; stroke-width: 0.8"/>
      </g>
     </g>
     <g id="text_12">
      <!-- −75 -->
      <g transform="translate(32.035313 264.98779) scale(0.1 -0.1)">
       <use xlink:href="#DejaVuSans-2212"/>
       <use xlink:href="#DejaVuSans-37" transform="translate(83.789062 0)"/>
       <use xlink:href="#DejaVuSans-35" transform="translate(147.412109 0)"/>
      </g>
     </g>
    </g>
    <g id="ytick_3">
     <g id="line2d_12">
      <g>
       <use xlink:href="#mbf40ef8f03" x="60.14" y="226.412381" style="stroke: #000000; stroke-width: 0.8"/>
      </g>
     </g>
     <g id="text_13">
      <!-- −50 -->
      <g transform="translate(32.035313 230.2116) scale(0.1 -0.1)">
       <use xlink:href="#DejaVuSans-2212"/>
       <use xlink:href="#DejaVuSans-35" transform="translate(83.789062 0)"/>
       <use xlink:href="#DejaVuSans-30" transform="translate(147.412109 0)"/>
      </g>
     </g>
    </g>
    <g id="ytick_4">
     <g id="line2d_13">
      <g>
       <use xlink:href="#mbf40ef8f03" x="60.14" y="191.63619" style="stroke: #000000; stroke-width: 0.8"/>
      </g>
     </g>
     <g id="text_14">
      <!-- −25 -->
      <g transform="translate(32.035313 195.435409) scale(0.1 -0.1)">
       <use xlink:href="#DejaVuSans-2212"/>
       <use xlink:href="#DejaVuSans-32" transform="translate(83.789062 0)"/>
       <use xlink:href="#DejaVuSans-35" transform="translate(147.412109 0)"/>
      </g>
     </g>
    </g>
    <g id="ytick_5">
     <g id="line2d_14">
      <g>
       <use xlink:href="#mbf40ef8f03" x="60.14" y="156.86" style="stroke: #000000; stroke-width: 0.8"/>
      </g>
     </g>
     <g id="text_15">
      <!-- 0 -->
      <g transform="translate(46.7775 160.659219) scale(0.1 -0.1)">
       <use xlink:href="#DejaVuSans-30"/>
      </g>
     </g>
    </g>
    <g id="ytick_6">
     <g id="line2d_15">
      <g>
       <use xlink:href="#mbf40ef8f03" x="60.14" y="122.08381" style="stroke: #000000; stroke-width: 0.8"/>
      </g>
     </g>
     <g id="text_16">
      <!-- 25 -->
      <g transform="translate(40.415 125.883028) scale(0.1 -0.1)">
       <use xlink:href="#DejaVuSans-32"/>
       <use xlink:href="#DejaVuSans-35" transform="translate(63.623047 0)"/>
      </g>
     </g>
    </g>
    <g id="ytick_7">
     <g id="line2d_16">
      <g>
       <use xlink:href="#mbf40ef8f03" x="60.14" y="87.307619" style="stroke: #000000; stroke-width: 0.8"/>
      </g>
     </g>
     <g id="text_17">
      <!-- 50 -->
      <g transform="translate(40.415 91.106838) scale(0.1 -0.1)">
       <use xlink:href="#DejaVuSans-35"/>
       <use xlink:href="#DejaVuSans-30" transform="translate(63.623047 0)"/>
      </g>
     </g>
    </g>
    <g id="ytick_8">
     <g id="line2d_17">
      <g>
       <use xlink:href="#mbf40ef8f03" x="60.14" y="52.531429" style="stroke: #000000; stroke-width: 0.8"/>
      </g>
     </g>
     <g id="text_18">
      <!-- 75 -->
      <g transform="translate(40.415 56.330647) scale(0.1 -0.1)">
       <use xlink:href="#DejaVuSans-37"/>
       <use xlink:href="#DejaVuSans-35" transform="translate(63.623047 0)"/>
      </g>
     </g>
    </g>
    <g id="ytick_9">
     <g id="line2d_18">
      <g>
       <use xlink:href="#mbf40ef8f03" x="60.14" y="17.755238" style="stroke: #000000; stroke-width: 0.8"/>
      </g>
     </g>
     <g id="text_19">
      <!-- 100 -->
      <g transform="translate(34.0525 21.554457) scale(0.1 -0.1)">
       <use xlink:href="#DejaVuSans-31"/>
       <use xlink:href="#DejaVuSans-30" transform="translate(63.623047 0)"/>
       <use xlink:href="#DejaVuSans-30" transform="translate(127.246094 0)"/>
      </g>
     </g>
    </g>
    <g id="text_20">
     <!-- Weight -->
     <g transform="translate(19.385156 176.020625) rotate(-90) scale(0.11 -0.11)">
      <defs>
       <path id="DejaVuSans-57" d="M 213 4666 
L 850 4666 
L 1831 722 
L 2809 4666 
L 3519 4666 
L 4500 722 
L 5478 4666 
L 6119 4666 
L 4947 0 
L 4153 0 
L 3169 4050 
L 2175 0 
L 1381 0 
L 213 4666 
z
" transform="scale(0.015625)"/>
       <path id="DejaVuSans-67" d="M 2906 1791 
Q 2906 2416 2648 2759 
Q 2391 3103 1925 3103 
Q 1463 3103 1205 2759 
Q 947 2416 947 1791 
Q 947 1169 1205 825 
Q 1463 481 1925 481 
Q 2391 481 2648 825 
Q 2906 1169 2906 1791 
z
M 3481 434 
Q 3481 -459 3084 -895 
Q 2688 -1331 1869 -1331 
Q 1566 -1331 1297 -1286 
Q 1028 -1241 775 -1147 
L 775 -588 
Q 1028 -725 1275 -790 
Q 1522 -856 1778 -856 
Q 2344 -856 2625 -561 
Q 2906 -266 2906 331 
L 2906 616 
Q 2728 306 2450 153 
Q 2172 0 1784 0 
Q 1141 0 747 490 
Q 353 981 353 1791 
Q 353 2603 747 3093 
Q 1141 3584 1784 3584 
Q 2172 3584 2450 3431 
Q 2728 3278 2906 2969 
L 2906 3500 
L 3481 3500 
L 3481 434 
z
" transform="scale(0.015625)"/>
       <path id="DejaVuSans-68" d="M 3513 2113 
L 3513 0 
L 2938 0 
L 2938 2094 
Q 2938 2591 2744 2837 
Q 2550 3084 2163 3084 
Q 1697 3084 1428 2787 
Q 1159 2491 1159 1978 
L 1159 0 
L 581 0 
L 581 4863 
L 1159 4863 
L 1159 2956 
Q 1366 3272 1645 3428 
Q 1925 3584 2291 3584 
Q 2894 3584 3203 3211 
Q 3513 2838 3513 2113 
z
" transform="scale(0.015625)"/>
      </defs>
      <use xlink:href="#DejaVuSans-57"/>
      <use xlink:href="#DejaVuSans-65" transform="translate(93.001953 0)"/>
      <use xlink:href="#DejaVuSans-69" transform="translate(154.525391 0)"/>
      <use xlink:href="#DejaVuSans-67" transform="translate(182.308594 0)"/>
      <use xlink:href="#DejaVuSans-68" transform="translate(245.785156 0)"/>
      <use xlink:href="#DejaVuSans-74" transform="translate(309.164062 0)"/>
     </g>
    </g>
   </g>
   <g id="patch_3">
    <path d="M 60.14 302.92 
L 60.14 10.8 
" style="fill: none; stroke: #000000; stroke-width: 0.8; stroke-linejoin: miter; stroke-linecap: square"/>
   </g>
   <g id="patch_4">
    <path d="M 448.917857 302.92 
L 448.917857 10.8 
" style="fill: none; stroke: #000000; stroke-width: 0.8; stroke-linejoin: miter; stroke-linecap: square"/>
   </g>
   <g id="patch_5">
    <path d="M 60.14 302.92 
L 448.917857 302.92 
" style="fill: none; stroke: #000000; stroke-width: 0.8; stroke-linejoin: miter; stroke-linecap: square"/>
   </g>
   <g id="patch_6">
    <path d="M 60.14 10.8 
L 448.917857 10.8 
" style="fill: none; stroke: #000000; stroke-width: 0.8; stroke-linejoin: miter; stroke-linecap: square"/>
   </g>
  </g>
 </g>
 <defs>
  <clipPath id="pfb2abdfe23">
   <rect x="60.14" y="10.8" width="388.777857" height="292.12"/>
  </clipPath>
 </defs>
</svg>
